M48
; DRILL file {KiCad 9.0.1} date 2025-06-23T17:34:09-0400
; FORMAT={-:-/ absolute / metric / decimal}
; #@! TF.CreationDate,2025-06-23T17:34:09-04:00
; #@! TF.GenerationSoftware,Kicad,Pcbnew,9.0.1
; #@! TF.FileFunction,Plated,1,2,PTH
FMAT,2
METRIC
; #@! TA.AperFunction,Plated,PTH,ViaDrill
T1C0.300
; #@! TA.AperFunction,Plated,PTH,ComponentDrill
T2C0.889
; #@! TA.AperFunction,Plated,PTH,ComponentDrill
T3C1.000
; #@! TA.AperFunction,Plated,PTH,ComponentDrill
T4C1.500
; #@! TA.AperFunction,Plated,PTH,ComponentDrill
T5C3.200
; #@! TA.AperFunction,Plated,PTH,ViaDrill
T6C6.000
%
G90
G05
T1
X150.75Y-52.75
X157.162Y-72.076
X190.5Y-100.012
T2
X141.38Y-50.006
X141.38Y-65.246
X143.92Y-50.006
X143.92Y-65.246
X146.46Y-50.006
X146.46Y-65.246
X149.0Y-50.006
X149.0Y-65.246
X151.54Y-50.006
X151.54Y-65.246
X154.08Y-50.006
X154.08Y-65.246
X156.62Y-50.006
X156.62Y-65.246
T3
X163.0Y-59.63
X163.0Y-62.17
X163.0Y-64.71
X163.0Y-67.25
T4
X146.209Y-80.804
X146.209Y-99.854
X152.559Y-78.264
X152.559Y-97.314
X155.734Y-118.904
X162.084Y-116.364
X165.259Y-80.804
X165.259Y-99.854
X171.609Y-78.264
X171.609Y-97.314
X184.309Y-80.804
X184.309Y-99.854
X184.309Y-118.904
X190.659Y-78.264
X190.659Y-97.314
X190.659Y-116.364
T5
X142.875Y-42.862
X142.875Y-133.35
X195.262Y-42.862
X195.262Y-133.35
T6
X169.0Y-42.5
M30
