G04 #@! TF.GenerationSoftware,KiCad,Pcbnew,9.0.1*
G04 #@! TF.CreationDate,2025-06-23T17:34:09-04:00*
G04 #@! TF.ProjectId,engiboard,656e6769-626f-4617-9264-2e6b69636164,rev?*
G04 #@! TF.SameCoordinates,Original*
G04 #@! TF.FileFunction,Soldermask,Top*
G04 #@! TF.FilePolarity,Negative*
%FSLAX46Y46*%
G04 Gerber Fmt 4.6, Leading zero omitted, Abs format (unit mm)*
G04 Created by KiCad (PCBNEW 9.0.1) date 2025-06-23 17:34:09*
%MOMM*%
%LPD*%
G01*
G04 APERTURE LIST*
G04 Aperture macros list*
%AMRoundRect*
0 Rectangle with rounded corners*
0 $1 Rounding radius*
0 $2 $3 $4 $5 $6 $7 $8 $9 X,Y pos of 4 corners*
0 Add a 4 corners polygon primitive as box body*
4,1,4,$2,$3,$4,$5,$6,$7,$8,$9,$2,$3,0*
0 Add four circle primitives for the rounded corners*
1,1,$1+$1,$2,$3*
1,1,$1+$1,$4,$5*
1,1,$1+$1,$6,$7*
1,1,$1+$1,$8,$9*
0 Add four rect primitives between the rounded corners*
20,1,$1+$1,$2,$3,$4,$5,0*
20,1,$1+$1,$4,$5,$6,$7,0*
20,1,$1+$1,$6,$7,$8,$9,0*
20,1,$1+$1,$8,$9,$2,$3,0*%
G04 Aperture macros list end*
%ADD10RoundRect,0.152400X-0.609600X1.063600X-0.609600X-1.063600X0.609600X-1.063600X0.609600X1.063600X0*%
%ADD11C,1.524000*%
%ADD12RoundRect,0.152400X0.609600X-1.063600X0.609600X1.063600X-0.609600X1.063600X-0.609600X-1.063600X0*%
%ADD13C,5.700000*%
%ADD14R,1.600000X0.850000*%
%ADD15C,1.700000*%
%ADD16C,4.000000*%
%ADD17C,2.200000*%
%ADD18R,1.700000X1.700000*%
G04 APERTURE END LIST*
D10*
G04 #@! TO.C,U1*
X141380000Y-66081250D03*
D11*
X141380000Y-65246250D03*
D10*
X143920000Y-66081250D03*
D11*
X143920000Y-65246250D03*
D10*
X146460000Y-66081250D03*
D11*
X146460000Y-65246250D03*
D10*
X149000000Y-66081250D03*
D11*
X149000000Y-65246250D03*
D10*
X151540000Y-66081250D03*
D11*
X151540000Y-65246250D03*
D10*
X154080000Y-66081250D03*
D11*
X154080000Y-65246250D03*
D10*
X156620000Y-66081250D03*
D11*
X156620000Y-65246250D03*
X156620000Y-50006250D03*
D12*
X156620000Y-49171250D03*
D11*
X154080000Y-50006250D03*
D12*
X154080000Y-49171250D03*
D11*
X151540000Y-50006250D03*
D12*
X151540000Y-49171250D03*
D11*
X149000000Y-50006250D03*
D12*
X149000000Y-49171250D03*
D11*
X146460000Y-50006250D03*
D12*
X146460000Y-49171250D03*
D11*
X143920000Y-50006250D03*
D12*
X143920000Y-49171250D03*
D11*
X141380000Y-50006250D03*
D12*
X141380000Y-49171250D03*
G04 #@! TD*
D13*
G04 #@! TO.C,REF\u002A\u002A*
X195262500Y-133350000D03*
G04 #@! TD*
D14*
G04 #@! TO.C,D2*
X184600000Y-70750000D03*
X184600000Y-72500000D03*
X188100000Y-72500000D03*
X188100000Y-70750000D03*
G04 #@! TD*
G04 #@! TO.C,D14*
X161293750Y-93743750D03*
X161293750Y-91993750D03*
X157793750Y-91993750D03*
X157793750Y-93743750D03*
G04 #@! TD*
G04 #@! TO.C,D1*
X150000000Y-70562500D03*
X150000000Y-72312500D03*
X153500000Y-72312500D03*
X153500000Y-70562500D03*
G04 #@! TD*
D15*
G04 #@! TO.C,SW4*
X144938750Y-102393750D03*
D16*
X150018750Y-102393750D03*
D15*
X155098750Y-102393750D03*
D17*
X152558750Y-97313750D03*
X146208750Y-99853750D03*
G04 #@! TD*
D14*
G04 #@! TO.C,D3*
X150000000Y-132475000D03*
X150000000Y-134225000D03*
X153500000Y-134225000D03*
X153500000Y-132475000D03*
G04 #@! TD*
D15*
G04 #@! TO.C,SW8*
X154463750Y-121443750D03*
D16*
X159543750Y-121443750D03*
D15*
X164623750Y-121443750D03*
D17*
X162083750Y-116363750D03*
X155733750Y-118903750D03*
G04 #@! TD*
D14*
G04 #@! TO.C,D13*
X180343750Y-112793750D03*
X180343750Y-111043750D03*
X176843750Y-111043750D03*
X176843750Y-112793750D03*
G04 #@! TD*
G04 #@! TO.C,D15*
X161293750Y-112793750D03*
X161293750Y-111043750D03*
X157793750Y-111043750D03*
X157793750Y-112793750D03*
G04 #@! TD*
D15*
G04 #@! TO.C,SW6*
X183038750Y-102393750D03*
D16*
X188118750Y-102393750D03*
D15*
X193198750Y-102393750D03*
D17*
X190658750Y-97313750D03*
X184308750Y-99853750D03*
G04 #@! TD*
D13*
G04 #@! TO.C,REF\u002A\u002A*
X142875000Y-133350000D03*
G04 #@! TD*
G04 #@! TO.C,REF\u002A\u002A*
X195262500Y-42862500D03*
G04 #@! TD*
D15*
G04 #@! TO.C,SW2*
X163988750Y-83343750D03*
D16*
X169068750Y-83343750D03*
D15*
X174148750Y-83343750D03*
D17*
X171608750Y-78263750D03*
X165258750Y-80803750D03*
G04 #@! TD*
D15*
G04 #@! TO.C,SW7*
X183038750Y-121443750D03*
D16*
X188118750Y-121443750D03*
D15*
X193198750Y-121443750D03*
D17*
X190658750Y-116363750D03*
X184308750Y-118903750D03*
G04 #@! TD*
D14*
G04 #@! TO.C,D16*
X180343750Y-93743750D03*
X180343750Y-91993750D03*
X176843750Y-91993750D03*
X176843750Y-93743750D03*
G04 #@! TD*
D18*
G04 #@! TO.C,OLED1*
X163000000Y-59630000D03*
D15*
X163000000Y-62170000D03*
X163000000Y-64710000D03*
X163000000Y-67250000D03*
G04 #@! TD*
D13*
G04 #@! TO.C,REF\u002A\u002A*
X142875000Y-42862500D03*
G04 #@! TD*
D14*
G04 #@! TO.C,D12*
X184600000Y-132475000D03*
X184600000Y-134225000D03*
X188100000Y-134225000D03*
X188100000Y-132475000D03*
G04 #@! TD*
D15*
G04 #@! TO.C,SW5*
X163988750Y-102393750D03*
D16*
X169068750Y-102393750D03*
D15*
X174148750Y-102393750D03*
D17*
X171608750Y-97313750D03*
X165258750Y-99853750D03*
G04 #@! TD*
D15*
G04 #@! TO.C,SW1*
X144938750Y-83343750D03*
D16*
X150018750Y-83343750D03*
D15*
X155098750Y-83343750D03*
D17*
X152558750Y-78263750D03*
X146208750Y-80803750D03*
G04 #@! TD*
D15*
G04 #@! TO.C,SW3*
X183038750Y-83343750D03*
D16*
X188118750Y-83343750D03*
D15*
X193198750Y-83343750D03*
D17*
X190658750Y-78263750D03*
X184308750Y-80803750D03*
G04 #@! TD*
M02*
