%TF.GenerationSoftware,KiCad,Pcbnew,9.0.1*%
%TF.CreationDate,2025-06-23T17:34:09-04:00*%
%TF.ProjectId,engiboard,656e6769-626f-4617-9264-2e6b69636164,rev?*%
%TF.SameCoordinates,Original*%
%TF.FileFunction,Drillmap*%
%TF.FilePolarity,Positive*%
%FSLAX45Y45*%
G04 Gerber Fmt 4.5, Leading zero omitted, Abs format (unit mm)*
G04 Created by KiCad (PCBNEW 9.0.1) date 2025-06-23 17:34:09*
%MOMM*%
%LPD*%
G01*
G04 APERTURE LIST*
%ADD10C,0.050000*%
%ADD11C,0.200000*%
%ADD12C,0.100000*%
%ADD13C,0.150000*%
%ADD14C,0.320000*%
%ADD15C,0.600000*%
G04 APERTURE END LIST*
D10*
X20002500Y-13335000D02*
G75*
G02*
X19526250Y-13811250I-476250J0D01*
G01*
X19526250Y-3810000D02*
X14287500Y-3810000D01*
X20002500Y-13335000D02*
X20002500Y-4286250D01*
X19526250Y-3810000D02*
G75*
G02*
X20002500Y-4286250I0J-476250D01*
G01*
X13811250Y-13335000D02*
X13811250Y-4286250D01*
X14287500Y-13811250D02*
X19526250Y-13811255D01*
X14287500Y-13811250D02*
G75*
G02*
X13811250Y-13335000I0J476250D01*
G01*
X13811250Y-4286250D02*
G75*
G02*
X14287500Y-3810000I476250J0D01*
G01*
D11*
D12*
X15060000Y-5260000D02*
X15090000Y-5290000D01*
X15090000Y-5260000D02*
X15060000Y-5290000D01*
X15701250Y-7192600D02*
X15731250Y-7222600D01*
X15731250Y-7192600D02*
X15701250Y-7222600D01*
X19035000Y-9986250D02*
X19065000Y-10016250D01*
X19065000Y-9986250D02*
X19035000Y-10016250D01*
X14182450Y-5000625D02*
G75*
G02*
X14093550Y-5000625I-44450J0D01*
G01*
X14093550Y-5000625D02*
G75*
G02*
X14182450Y-5000625I44450J0D01*
G01*
X14182450Y-6524625D02*
G75*
G02*
X14093550Y-6524625I-44450J0D01*
G01*
X14093550Y-6524625D02*
G75*
G02*
X14182450Y-6524625I44450J0D01*
G01*
X14436450Y-5000625D02*
G75*
G02*
X14347550Y-5000625I-44450J0D01*
G01*
X14347550Y-5000625D02*
G75*
G02*
X14436450Y-5000625I44450J0D01*
G01*
X14436450Y-6524625D02*
G75*
G02*
X14347550Y-6524625I-44450J0D01*
G01*
X14347550Y-6524625D02*
G75*
G02*
X14436450Y-6524625I44450J0D01*
G01*
X14690450Y-5000625D02*
G75*
G02*
X14601550Y-5000625I-44450J0D01*
G01*
X14601550Y-5000625D02*
G75*
G02*
X14690450Y-5000625I44450J0D01*
G01*
X14690450Y-6524625D02*
G75*
G02*
X14601550Y-6524625I-44450J0D01*
G01*
X14601550Y-6524625D02*
G75*
G02*
X14690450Y-6524625I44450J0D01*
G01*
X14944450Y-5000625D02*
G75*
G02*
X14855550Y-5000625I-44450J0D01*
G01*
X14855550Y-5000625D02*
G75*
G02*
X14944450Y-5000625I44450J0D01*
G01*
X14944450Y-6524625D02*
G75*
G02*
X14855550Y-6524625I-44450J0D01*
G01*
X14855550Y-6524625D02*
G75*
G02*
X14944450Y-6524625I44450J0D01*
G01*
X15198450Y-5000625D02*
G75*
G02*
X15109550Y-5000625I-44450J0D01*
G01*
X15109550Y-5000625D02*
G75*
G02*
X15198450Y-5000625I44450J0D01*
G01*
X15198450Y-6524625D02*
G75*
G02*
X15109550Y-6524625I-44450J0D01*
G01*
X15109550Y-6524625D02*
G75*
G02*
X15198450Y-6524625I44450J0D01*
G01*
X15452450Y-5000625D02*
G75*
G02*
X15363550Y-5000625I-44450J0D01*
G01*
X15363550Y-5000625D02*
G75*
G02*
X15452450Y-5000625I44450J0D01*
G01*
X15452450Y-6524625D02*
G75*
G02*
X15363550Y-6524625I-44450J0D01*
G01*
X15363550Y-6524625D02*
G75*
G02*
X15452450Y-6524625I44450J0D01*
G01*
X15706450Y-5000625D02*
G75*
G02*
X15617550Y-5000625I-44450J0D01*
G01*
X15617550Y-5000625D02*
G75*
G02*
X15706450Y-5000625I44450J0D01*
G01*
X15706450Y-6524625D02*
G75*
G02*
X15617550Y-6524625I-44450J0D01*
G01*
X15617550Y-6524625D02*
G75*
G02*
X15706450Y-6524625I44450J0D01*
G01*
X16300000Y-5913000D02*
X16300000Y-6013000D01*
X16250000Y-5963000D02*
X16350000Y-5963000D01*
X16300000Y-6167000D02*
X16300000Y-6267000D01*
X16250000Y-6217000D02*
X16350000Y-6217000D01*
X16300000Y-6421000D02*
X16300000Y-6521000D01*
X16250000Y-6471000D02*
X16350000Y-6471000D01*
X16300000Y-6675000D02*
X16300000Y-6775000D01*
X16250000Y-6725000D02*
X16350000Y-6725000D01*
D13*
X14673908Y-8133408D02*
X14673908Y-8027341D01*
X14567841Y-8027341D01*
X14567841Y-8133408D01*
X14673908Y-8133408D01*
X14673908Y-10038409D02*
X14673908Y-9932342D01*
X14567841Y-9932342D01*
X14567841Y-10038409D01*
X14673908Y-10038409D01*
X15308908Y-7879408D02*
X15308908Y-7773341D01*
X15202841Y-7773341D01*
X15202841Y-7879408D01*
X15308908Y-7879408D01*
X15308908Y-9784409D02*
X15308908Y-9678342D01*
X15202841Y-9678342D01*
X15202841Y-9784409D01*
X15308908Y-9784409D01*
X15626408Y-11943408D02*
X15626408Y-11837341D01*
X15520341Y-11837341D01*
X15520341Y-11943408D01*
X15626408Y-11943408D01*
X16261408Y-11689408D02*
X16261408Y-11583341D01*
X16155341Y-11583341D01*
X16155341Y-11689408D01*
X16261408Y-11689408D01*
X16578908Y-8133408D02*
X16578908Y-8027341D01*
X16472841Y-8027341D01*
X16472841Y-8133408D01*
X16578908Y-8133408D01*
X16578908Y-10038409D02*
X16578908Y-9932342D01*
X16472841Y-9932342D01*
X16472841Y-10038409D01*
X16578908Y-10038409D01*
X17213909Y-7879408D02*
X17213909Y-7773341D01*
X17107842Y-7773341D01*
X17107842Y-7879408D01*
X17213909Y-7879408D01*
X17213909Y-9784409D02*
X17213909Y-9678342D01*
X17107842Y-9678342D01*
X17107842Y-9784409D01*
X17213909Y-9784409D01*
X18483909Y-8133408D02*
X18483909Y-8027341D01*
X18377842Y-8027341D01*
X18377842Y-8133408D01*
X18483909Y-8133408D01*
X18483909Y-10038409D02*
X18483909Y-9932342D01*
X18377842Y-9932342D01*
X18377842Y-10038409D01*
X18483909Y-10038409D01*
X18483909Y-11943408D02*
X18483909Y-11837341D01*
X18377842Y-11837341D01*
X18377842Y-11943408D01*
X18483909Y-11943408D01*
X19118909Y-7879408D02*
X19118909Y-7773341D01*
X19012842Y-7773341D01*
X19012842Y-7879408D01*
X19118909Y-7879408D01*
X19118909Y-9784409D02*
X19118909Y-9678342D01*
X19012842Y-9678342D01*
X19012842Y-9784409D01*
X19118909Y-9784409D01*
X19118909Y-11689408D02*
X19118909Y-11583341D01*
X19012842Y-11583341D01*
X19012842Y-11689408D01*
X19118909Y-11689408D01*
D14*
X14287500Y-4446250D02*
X14447500Y-4286250D01*
X14287500Y-4126250D01*
X14127500Y-4286250D01*
X14287500Y-4446250D01*
X14287500Y-13495000D02*
X14447500Y-13335000D01*
X14287500Y-13175000D01*
X14127500Y-13335000D01*
X14287500Y-13495000D01*
X19526250Y-4446250D02*
X19686250Y-4286250D01*
X19526250Y-4126250D01*
X19366250Y-4286250D01*
X19526250Y-4446250D01*
X19526250Y-13495000D02*
X19686250Y-13335000D01*
X19526250Y-13175000D01*
X19366250Y-13335000D01*
X19526250Y-13495000D01*
D15*
X16600000Y-3950000D02*
X17200000Y-4550000D01*
X17200000Y-3950000D02*
X16600000Y-4550000D01*
X17200000Y-4250000D02*
G75*
G02*
X16600000Y-4250000I-300000J0D01*
G01*
X16600000Y-4250000D02*
G75*
G02*
X17200000Y-4250000I300000J0D01*
G01*
D11*
X14069527Y-14125239D02*
X14069527Y-13925239D01*
X14069527Y-13925239D02*
X14117146Y-13925239D01*
X14117146Y-13925239D02*
X14145717Y-13934763D01*
X14145717Y-13934763D02*
X14164765Y-13953810D01*
X14164765Y-13953810D02*
X14174289Y-13972858D01*
X14174289Y-13972858D02*
X14183812Y-14010953D01*
X14183812Y-14010953D02*
X14183812Y-14039524D01*
X14183812Y-14039524D02*
X14174289Y-14077620D01*
X14174289Y-14077620D02*
X14164765Y-14096667D01*
X14164765Y-14096667D02*
X14145717Y-14115715D01*
X14145717Y-14115715D02*
X14117146Y-14125239D01*
X14117146Y-14125239D02*
X14069527Y-14125239D01*
X14269527Y-14125239D02*
X14269527Y-13991905D01*
X14269527Y-14030001D02*
X14279051Y-14010953D01*
X14279051Y-14010953D02*
X14288574Y-14001429D01*
X14288574Y-14001429D02*
X14307622Y-13991905D01*
X14307622Y-13991905D02*
X14326670Y-13991905D01*
X14393336Y-14125239D02*
X14393336Y-13991905D01*
X14393336Y-13925239D02*
X14383812Y-13934763D01*
X14383812Y-13934763D02*
X14393336Y-13944286D01*
X14393336Y-13944286D02*
X14402860Y-13934763D01*
X14402860Y-13934763D02*
X14393336Y-13925239D01*
X14393336Y-13925239D02*
X14393336Y-13944286D01*
X14517146Y-14125239D02*
X14498098Y-14115715D01*
X14498098Y-14115715D02*
X14488574Y-14096667D01*
X14488574Y-14096667D02*
X14488574Y-13925239D01*
X14621908Y-14125239D02*
X14602860Y-14115715D01*
X14602860Y-14115715D02*
X14593336Y-14096667D01*
X14593336Y-14096667D02*
X14593336Y-13925239D01*
X14850479Y-14125239D02*
X14850479Y-13925239D01*
X14850479Y-13925239D02*
X14917146Y-14068096D01*
X14917146Y-14068096D02*
X14983812Y-13925239D01*
X14983812Y-13925239D02*
X14983812Y-14125239D01*
X15164765Y-14125239D02*
X15164765Y-14020477D01*
X15164765Y-14020477D02*
X15155241Y-14001429D01*
X15155241Y-14001429D02*
X15136193Y-13991905D01*
X15136193Y-13991905D02*
X15098098Y-13991905D01*
X15098098Y-13991905D02*
X15079051Y-14001429D01*
X15164765Y-14115715D02*
X15145717Y-14125239D01*
X15145717Y-14125239D02*
X15098098Y-14125239D01*
X15098098Y-14125239D02*
X15079051Y-14115715D01*
X15079051Y-14115715D02*
X15069527Y-14096667D01*
X15069527Y-14096667D02*
X15069527Y-14077620D01*
X15069527Y-14077620D02*
X15079051Y-14058572D01*
X15079051Y-14058572D02*
X15098098Y-14049048D01*
X15098098Y-14049048D02*
X15145717Y-14049048D01*
X15145717Y-14049048D02*
X15164765Y-14039524D01*
X15260003Y-13991905D02*
X15260003Y-14191905D01*
X15260003Y-14001429D02*
X15279051Y-13991905D01*
X15279051Y-13991905D02*
X15317146Y-13991905D01*
X15317146Y-13991905D02*
X15336193Y-14001429D01*
X15336193Y-14001429D02*
X15345717Y-14010953D01*
X15345717Y-14010953D02*
X15355241Y-14030001D01*
X15355241Y-14030001D02*
X15355241Y-14087143D01*
X15355241Y-14087143D02*
X15345717Y-14106191D01*
X15345717Y-14106191D02*
X15336193Y-14115715D01*
X15336193Y-14115715D02*
X15317146Y-14125239D01*
X15317146Y-14125239D02*
X15279051Y-14125239D01*
X15279051Y-14125239D02*
X15260003Y-14115715D01*
X15440955Y-14106191D02*
X15450479Y-14115715D01*
X15450479Y-14115715D02*
X15440955Y-14125239D01*
X15440955Y-14125239D02*
X15431432Y-14115715D01*
X15431432Y-14115715D02*
X15440955Y-14106191D01*
X15440955Y-14106191D02*
X15440955Y-14125239D01*
X15440955Y-14001429D02*
X15450479Y-14010953D01*
X15450479Y-14010953D02*
X15440955Y-14020477D01*
X15440955Y-14020477D02*
X15431432Y-14010953D01*
X15431432Y-14010953D02*
X15440955Y-14001429D01*
X15440955Y-14001429D02*
X15440955Y-14020477D01*
D12*
X13778750Y-14438755D02*
X13808750Y-14468755D01*
X13808750Y-14438755D02*
X13778750Y-14468755D01*
D11*
X14107622Y-14345239D02*
X14126670Y-14345239D01*
X14126670Y-14345239D02*
X14145717Y-14354763D01*
X14145717Y-14354763D02*
X14155241Y-14364286D01*
X14155241Y-14364286D02*
X14164765Y-14383334D01*
X14164765Y-14383334D02*
X14174289Y-14421429D01*
X14174289Y-14421429D02*
X14174289Y-14469048D01*
X14174289Y-14469048D02*
X14164765Y-14507143D01*
X14164765Y-14507143D02*
X14155241Y-14526191D01*
X14155241Y-14526191D02*
X14145717Y-14535715D01*
X14145717Y-14535715D02*
X14126670Y-14545239D01*
X14126670Y-14545239D02*
X14107622Y-14545239D01*
X14107622Y-14545239D02*
X14088574Y-14535715D01*
X14088574Y-14535715D02*
X14079051Y-14526191D01*
X14079051Y-14526191D02*
X14069527Y-14507143D01*
X14069527Y-14507143D02*
X14060003Y-14469048D01*
X14060003Y-14469048D02*
X14060003Y-14421429D01*
X14060003Y-14421429D02*
X14069527Y-14383334D01*
X14069527Y-14383334D02*
X14079051Y-14364286D01*
X14079051Y-14364286D02*
X14088574Y-14354763D01*
X14088574Y-14354763D02*
X14107622Y-14345239D01*
X14260003Y-14526191D02*
X14269527Y-14535715D01*
X14269527Y-14535715D02*
X14260003Y-14545239D01*
X14260003Y-14545239D02*
X14250479Y-14535715D01*
X14250479Y-14535715D02*
X14260003Y-14526191D01*
X14260003Y-14526191D02*
X14260003Y-14545239D01*
X14336193Y-14345239D02*
X14460003Y-14345239D01*
X14460003Y-14345239D02*
X14393336Y-14421429D01*
X14393336Y-14421429D02*
X14421908Y-14421429D01*
X14421908Y-14421429D02*
X14440955Y-14430953D01*
X14440955Y-14430953D02*
X14450479Y-14440477D01*
X14450479Y-14440477D02*
X14460003Y-14459524D01*
X14460003Y-14459524D02*
X14460003Y-14507143D01*
X14460003Y-14507143D02*
X14450479Y-14526191D01*
X14450479Y-14526191D02*
X14440955Y-14535715D01*
X14440955Y-14535715D02*
X14421908Y-14545239D01*
X14421908Y-14545239D02*
X14364765Y-14545239D01*
X14364765Y-14545239D02*
X14345717Y-14535715D01*
X14345717Y-14535715D02*
X14336193Y-14526191D01*
X14583812Y-14345239D02*
X14602860Y-14345239D01*
X14602860Y-14345239D02*
X14621908Y-14354763D01*
X14621908Y-14354763D02*
X14631432Y-14364286D01*
X14631432Y-14364286D02*
X14640955Y-14383334D01*
X14640955Y-14383334D02*
X14650479Y-14421429D01*
X14650479Y-14421429D02*
X14650479Y-14469048D01*
X14650479Y-14469048D02*
X14640955Y-14507143D01*
X14640955Y-14507143D02*
X14631432Y-14526191D01*
X14631432Y-14526191D02*
X14621908Y-14535715D01*
X14621908Y-14535715D02*
X14602860Y-14545239D01*
X14602860Y-14545239D02*
X14583812Y-14545239D01*
X14583812Y-14545239D02*
X14564765Y-14535715D01*
X14564765Y-14535715D02*
X14555241Y-14526191D01*
X14555241Y-14526191D02*
X14545717Y-14507143D01*
X14545717Y-14507143D02*
X14536193Y-14469048D01*
X14536193Y-14469048D02*
X14536193Y-14421429D01*
X14536193Y-14421429D02*
X14545717Y-14383334D01*
X14545717Y-14383334D02*
X14555241Y-14364286D01*
X14555241Y-14364286D02*
X14564765Y-14354763D01*
X14564765Y-14354763D02*
X14583812Y-14345239D01*
X14774289Y-14345239D02*
X14793336Y-14345239D01*
X14793336Y-14345239D02*
X14812384Y-14354763D01*
X14812384Y-14354763D02*
X14821908Y-14364286D01*
X14821908Y-14364286D02*
X14831432Y-14383334D01*
X14831432Y-14383334D02*
X14840955Y-14421429D01*
X14840955Y-14421429D02*
X14840955Y-14469048D01*
X14840955Y-14469048D02*
X14831432Y-14507143D01*
X14831432Y-14507143D02*
X14821908Y-14526191D01*
X14821908Y-14526191D02*
X14812384Y-14535715D01*
X14812384Y-14535715D02*
X14793336Y-14545239D01*
X14793336Y-14545239D02*
X14774289Y-14545239D01*
X14774289Y-14545239D02*
X14755241Y-14535715D01*
X14755241Y-14535715D02*
X14745717Y-14526191D01*
X14745717Y-14526191D02*
X14736193Y-14507143D01*
X14736193Y-14507143D02*
X14726670Y-14469048D01*
X14726670Y-14469048D02*
X14726670Y-14421429D01*
X14726670Y-14421429D02*
X14736193Y-14383334D01*
X14736193Y-14383334D02*
X14745717Y-14364286D01*
X14745717Y-14364286D02*
X14755241Y-14354763D01*
X14755241Y-14354763D02*
X14774289Y-14345239D01*
X14926670Y-14545239D02*
X14926670Y-14411905D01*
X14926670Y-14430953D02*
X14936193Y-14421429D01*
X14936193Y-14421429D02*
X14955241Y-14411905D01*
X14955241Y-14411905D02*
X14983813Y-14411905D01*
X14983813Y-14411905D02*
X15002860Y-14421429D01*
X15002860Y-14421429D02*
X15012384Y-14440477D01*
X15012384Y-14440477D02*
X15012384Y-14545239D01*
X15012384Y-14440477D02*
X15021908Y-14421429D01*
X15021908Y-14421429D02*
X15040955Y-14411905D01*
X15040955Y-14411905D02*
X15069527Y-14411905D01*
X15069527Y-14411905D02*
X15088574Y-14421429D01*
X15088574Y-14421429D02*
X15098098Y-14440477D01*
X15098098Y-14440477D02*
X15098098Y-14545239D01*
X15193336Y-14545239D02*
X15193336Y-14411905D01*
X15193336Y-14430953D02*
X15202860Y-14421429D01*
X15202860Y-14421429D02*
X15221908Y-14411905D01*
X15221908Y-14411905D02*
X15250479Y-14411905D01*
X15250479Y-14411905D02*
X15269527Y-14421429D01*
X15269527Y-14421429D02*
X15279051Y-14440477D01*
X15279051Y-14440477D02*
X15279051Y-14545239D01*
X15279051Y-14440477D02*
X15288574Y-14421429D01*
X15288574Y-14421429D02*
X15307622Y-14411905D01*
X15307622Y-14411905D02*
X15336193Y-14411905D01*
X15336193Y-14411905D02*
X15355241Y-14421429D01*
X15355241Y-14421429D02*
X15364765Y-14440477D01*
X15364765Y-14440477D02*
X15364765Y-14545239D01*
X15755241Y-14335715D02*
X15583813Y-14592858D01*
X16012384Y-14345239D02*
X16031432Y-14345239D01*
X16031432Y-14345239D02*
X16050479Y-14354763D01*
X16050479Y-14354763D02*
X16060003Y-14364286D01*
X16060003Y-14364286D02*
X16069527Y-14383334D01*
X16069527Y-14383334D02*
X16079051Y-14421429D01*
X16079051Y-14421429D02*
X16079051Y-14469048D01*
X16079051Y-14469048D02*
X16069527Y-14507143D01*
X16069527Y-14507143D02*
X16060003Y-14526191D01*
X16060003Y-14526191D02*
X16050479Y-14535715D01*
X16050479Y-14535715D02*
X16031432Y-14545239D01*
X16031432Y-14545239D02*
X16012384Y-14545239D01*
X16012384Y-14545239D02*
X15993336Y-14535715D01*
X15993336Y-14535715D02*
X15983813Y-14526191D01*
X15983813Y-14526191D02*
X15974289Y-14507143D01*
X15974289Y-14507143D02*
X15964765Y-14469048D01*
X15964765Y-14469048D02*
X15964765Y-14421429D01*
X15964765Y-14421429D02*
X15974289Y-14383334D01*
X15974289Y-14383334D02*
X15983813Y-14364286D01*
X15983813Y-14364286D02*
X15993336Y-14354763D01*
X15993336Y-14354763D02*
X16012384Y-14345239D01*
X16164765Y-14526191D02*
X16174289Y-14535715D01*
X16174289Y-14535715D02*
X16164765Y-14545239D01*
X16164765Y-14545239D02*
X16155241Y-14535715D01*
X16155241Y-14535715D02*
X16164765Y-14526191D01*
X16164765Y-14526191D02*
X16164765Y-14545239D01*
X16298098Y-14345239D02*
X16317146Y-14345239D01*
X16317146Y-14345239D02*
X16336194Y-14354763D01*
X16336194Y-14354763D02*
X16345717Y-14364286D01*
X16345717Y-14364286D02*
X16355241Y-14383334D01*
X16355241Y-14383334D02*
X16364765Y-14421429D01*
X16364765Y-14421429D02*
X16364765Y-14469048D01*
X16364765Y-14469048D02*
X16355241Y-14507143D01*
X16355241Y-14507143D02*
X16345717Y-14526191D01*
X16345717Y-14526191D02*
X16336194Y-14535715D01*
X16336194Y-14535715D02*
X16317146Y-14545239D01*
X16317146Y-14545239D02*
X16298098Y-14545239D01*
X16298098Y-14545239D02*
X16279051Y-14535715D01*
X16279051Y-14535715D02*
X16269527Y-14526191D01*
X16269527Y-14526191D02*
X16260003Y-14507143D01*
X16260003Y-14507143D02*
X16250479Y-14469048D01*
X16250479Y-14469048D02*
X16250479Y-14421429D01*
X16250479Y-14421429D02*
X16260003Y-14383334D01*
X16260003Y-14383334D02*
X16269527Y-14364286D01*
X16269527Y-14364286D02*
X16279051Y-14354763D01*
X16279051Y-14354763D02*
X16298098Y-14345239D01*
X16555241Y-14545239D02*
X16440956Y-14545239D01*
X16498098Y-14545239D02*
X16498098Y-14345239D01*
X16498098Y-14345239D02*
X16479051Y-14373810D01*
X16479051Y-14373810D02*
X16460003Y-14392858D01*
X16460003Y-14392858D02*
X16440956Y-14402382D01*
X16745717Y-14545239D02*
X16631432Y-14545239D01*
X16688575Y-14545239D02*
X16688575Y-14345239D01*
X16688575Y-14345239D02*
X16669527Y-14373810D01*
X16669527Y-14373810D02*
X16650479Y-14392858D01*
X16650479Y-14392858D02*
X16631432Y-14402382D01*
X16860003Y-14430953D02*
X16840956Y-14421429D01*
X16840956Y-14421429D02*
X16831432Y-14411905D01*
X16831432Y-14411905D02*
X16821908Y-14392858D01*
X16821908Y-14392858D02*
X16821908Y-14383334D01*
X16821908Y-14383334D02*
X16831432Y-14364286D01*
X16831432Y-14364286D02*
X16840956Y-14354763D01*
X16840956Y-14354763D02*
X16860003Y-14345239D01*
X16860003Y-14345239D02*
X16898099Y-14345239D01*
X16898099Y-14345239D02*
X16917146Y-14354763D01*
X16917146Y-14354763D02*
X16926670Y-14364286D01*
X16926670Y-14364286D02*
X16936194Y-14383334D01*
X16936194Y-14383334D02*
X16936194Y-14392858D01*
X16936194Y-14392858D02*
X16926670Y-14411905D01*
X16926670Y-14411905D02*
X16917146Y-14421429D01*
X16917146Y-14421429D02*
X16898099Y-14430953D01*
X16898099Y-14430953D02*
X16860003Y-14430953D01*
X16860003Y-14430953D02*
X16840956Y-14440477D01*
X16840956Y-14440477D02*
X16831432Y-14450001D01*
X16831432Y-14450001D02*
X16821908Y-14469048D01*
X16821908Y-14469048D02*
X16821908Y-14507143D01*
X16821908Y-14507143D02*
X16831432Y-14526191D01*
X16831432Y-14526191D02*
X16840956Y-14535715D01*
X16840956Y-14535715D02*
X16860003Y-14545239D01*
X16860003Y-14545239D02*
X16898099Y-14545239D01*
X16898099Y-14545239D02*
X16917146Y-14535715D01*
X16917146Y-14535715D02*
X16926670Y-14526191D01*
X16926670Y-14526191D02*
X16936194Y-14507143D01*
X16936194Y-14507143D02*
X16936194Y-14469048D01*
X16936194Y-14469048D02*
X16926670Y-14450001D01*
X16926670Y-14450001D02*
X16917146Y-14440477D01*
X16917146Y-14440477D02*
X16898099Y-14430953D01*
X17012384Y-14345239D02*
X17012384Y-14383334D01*
X17088575Y-14345239D02*
X17088575Y-14383334D01*
X17383813Y-14621429D02*
X17374289Y-14611905D01*
X17374289Y-14611905D02*
X17355241Y-14583334D01*
X17355241Y-14583334D02*
X17345718Y-14564286D01*
X17345718Y-14564286D02*
X17336194Y-14535715D01*
X17336194Y-14535715D02*
X17326670Y-14488096D01*
X17326670Y-14488096D02*
X17326670Y-14450001D01*
X17326670Y-14450001D02*
X17336194Y-14402382D01*
X17336194Y-14402382D02*
X17345718Y-14373810D01*
X17345718Y-14373810D02*
X17355241Y-14354763D01*
X17355241Y-14354763D02*
X17374289Y-14326191D01*
X17374289Y-14326191D02*
X17383813Y-14316667D01*
X17440956Y-14345239D02*
X17564765Y-14345239D01*
X17564765Y-14345239D02*
X17498099Y-14421429D01*
X17498099Y-14421429D02*
X17526670Y-14421429D01*
X17526670Y-14421429D02*
X17545718Y-14430953D01*
X17545718Y-14430953D02*
X17555241Y-14440477D01*
X17555241Y-14440477D02*
X17564765Y-14459524D01*
X17564765Y-14459524D02*
X17564765Y-14507143D01*
X17564765Y-14507143D02*
X17555241Y-14526191D01*
X17555241Y-14526191D02*
X17545718Y-14535715D01*
X17545718Y-14535715D02*
X17526670Y-14545239D01*
X17526670Y-14545239D02*
X17469527Y-14545239D01*
X17469527Y-14545239D02*
X17450480Y-14535715D01*
X17450480Y-14535715D02*
X17440956Y-14526191D01*
X17802861Y-14545239D02*
X17802861Y-14345239D01*
X17888575Y-14545239D02*
X17888575Y-14440477D01*
X17888575Y-14440477D02*
X17879051Y-14421429D01*
X17879051Y-14421429D02*
X17860003Y-14411905D01*
X17860003Y-14411905D02*
X17831432Y-14411905D01*
X17831432Y-14411905D02*
X17812384Y-14421429D01*
X17812384Y-14421429D02*
X17802861Y-14430953D01*
X18012384Y-14545239D02*
X17993337Y-14535715D01*
X17993337Y-14535715D02*
X17983813Y-14526191D01*
X17983813Y-14526191D02*
X17974289Y-14507143D01*
X17974289Y-14507143D02*
X17974289Y-14450001D01*
X17974289Y-14450001D02*
X17983813Y-14430953D01*
X17983813Y-14430953D02*
X17993337Y-14421429D01*
X17993337Y-14421429D02*
X18012384Y-14411905D01*
X18012384Y-14411905D02*
X18040956Y-14411905D01*
X18040956Y-14411905D02*
X18060003Y-14421429D01*
X18060003Y-14421429D02*
X18069527Y-14430953D01*
X18069527Y-14430953D02*
X18079051Y-14450001D01*
X18079051Y-14450001D02*
X18079051Y-14507143D01*
X18079051Y-14507143D02*
X18069527Y-14526191D01*
X18069527Y-14526191D02*
X18060003Y-14535715D01*
X18060003Y-14535715D02*
X18040956Y-14545239D01*
X18040956Y-14545239D02*
X18012384Y-14545239D01*
X18193337Y-14545239D02*
X18174289Y-14535715D01*
X18174289Y-14535715D02*
X18164765Y-14516667D01*
X18164765Y-14516667D02*
X18164765Y-14345239D01*
X18345718Y-14535715D02*
X18326670Y-14545239D01*
X18326670Y-14545239D02*
X18288575Y-14545239D01*
X18288575Y-14545239D02*
X18269527Y-14535715D01*
X18269527Y-14535715D02*
X18260003Y-14516667D01*
X18260003Y-14516667D02*
X18260003Y-14440477D01*
X18260003Y-14440477D02*
X18269527Y-14421429D01*
X18269527Y-14421429D02*
X18288575Y-14411905D01*
X18288575Y-14411905D02*
X18326670Y-14411905D01*
X18326670Y-14411905D02*
X18345718Y-14421429D01*
X18345718Y-14421429D02*
X18355242Y-14440477D01*
X18355242Y-14440477D02*
X18355242Y-14459524D01*
X18355242Y-14459524D02*
X18260003Y-14478572D01*
X18431432Y-14535715D02*
X18450480Y-14545239D01*
X18450480Y-14545239D02*
X18488575Y-14545239D01*
X18488575Y-14545239D02*
X18507623Y-14535715D01*
X18507623Y-14535715D02*
X18517146Y-14516667D01*
X18517146Y-14516667D02*
X18517146Y-14507143D01*
X18517146Y-14507143D02*
X18507623Y-14488096D01*
X18507623Y-14488096D02*
X18488575Y-14478572D01*
X18488575Y-14478572D02*
X18460003Y-14478572D01*
X18460003Y-14478572D02*
X18440956Y-14469048D01*
X18440956Y-14469048D02*
X18431432Y-14450001D01*
X18431432Y-14450001D02*
X18431432Y-14440477D01*
X18431432Y-14440477D02*
X18440956Y-14421429D01*
X18440956Y-14421429D02*
X18460003Y-14411905D01*
X18460003Y-14411905D02*
X18488575Y-14411905D01*
X18488575Y-14411905D02*
X18507623Y-14421429D01*
X18583813Y-14621429D02*
X18593337Y-14611905D01*
X18593337Y-14611905D02*
X18612384Y-14583334D01*
X18612384Y-14583334D02*
X18621908Y-14564286D01*
X18621908Y-14564286D02*
X18631432Y-14535715D01*
X18631432Y-14535715D02*
X18640956Y-14488096D01*
X18640956Y-14488096D02*
X18640956Y-14450001D01*
X18640956Y-14450001D02*
X18631432Y-14402382D01*
X18631432Y-14402382D02*
X18621908Y-14373810D01*
X18621908Y-14373810D02*
X18612384Y-14354763D01*
X18612384Y-14354763D02*
X18593337Y-14326191D01*
X18593337Y-14326191D02*
X18583813Y-14316667D01*
D12*
X13808750Y-14717755D02*
G75*
G02*
X13719850Y-14717755I-44450J0D01*
G01*
X13719850Y-14717755D02*
G75*
G02*
X13808750Y-14717755I44450J0D01*
G01*
D11*
X14107622Y-14609239D02*
X14126670Y-14609239D01*
X14126670Y-14609239D02*
X14145717Y-14618763D01*
X14145717Y-14618763D02*
X14155241Y-14628286D01*
X14155241Y-14628286D02*
X14164765Y-14647334D01*
X14164765Y-14647334D02*
X14174289Y-14685429D01*
X14174289Y-14685429D02*
X14174289Y-14733048D01*
X14174289Y-14733048D02*
X14164765Y-14771143D01*
X14164765Y-14771143D02*
X14155241Y-14790191D01*
X14155241Y-14790191D02*
X14145717Y-14799715D01*
X14145717Y-14799715D02*
X14126670Y-14809239D01*
X14126670Y-14809239D02*
X14107622Y-14809239D01*
X14107622Y-14809239D02*
X14088574Y-14799715D01*
X14088574Y-14799715D02*
X14079051Y-14790191D01*
X14079051Y-14790191D02*
X14069527Y-14771143D01*
X14069527Y-14771143D02*
X14060003Y-14733048D01*
X14060003Y-14733048D02*
X14060003Y-14685429D01*
X14060003Y-14685429D02*
X14069527Y-14647334D01*
X14069527Y-14647334D02*
X14079051Y-14628286D01*
X14079051Y-14628286D02*
X14088574Y-14618763D01*
X14088574Y-14618763D02*
X14107622Y-14609239D01*
X14260003Y-14790191D02*
X14269527Y-14799715D01*
X14269527Y-14799715D02*
X14260003Y-14809239D01*
X14260003Y-14809239D02*
X14250479Y-14799715D01*
X14250479Y-14799715D02*
X14260003Y-14790191D01*
X14260003Y-14790191D02*
X14260003Y-14809239D01*
X14383812Y-14694953D02*
X14364765Y-14685429D01*
X14364765Y-14685429D02*
X14355241Y-14675905D01*
X14355241Y-14675905D02*
X14345717Y-14656858D01*
X14345717Y-14656858D02*
X14345717Y-14647334D01*
X14345717Y-14647334D02*
X14355241Y-14628286D01*
X14355241Y-14628286D02*
X14364765Y-14618763D01*
X14364765Y-14618763D02*
X14383812Y-14609239D01*
X14383812Y-14609239D02*
X14421908Y-14609239D01*
X14421908Y-14609239D02*
X14440955Y-14618763D01*
X14440955Y-14618763D02*
X14450479Y-14628286D01*
X14450479Y-14628286D02*
X14460003Y-14647334D01*
X14460003Y-14647334D02*
X14460003Y-14656858D01*
X14460003Y-14656858D02*
X14450479Y-14675905D01*
X14450479Y-14675905D02*
X14440955Y-14685429D01*
X14440955Y-14685429D02*
X14421908Y-14694953D01*
X14421908Y-14694953D02*
X14383812Y-14694953D01*
X14383812Y-14694953D02*
X14364765Y-14704477D01*
X14364765Y-14704477D02*
X14355241Y-14714001D01*
X14355241Y-14714001D02*
X14345717Y-14733048D01*
X14345717Y-14733048D02*
X14345717Y-14771143D01*
X14345717Y-14771143D02*
X14355241Y-14790191D01*
X14355241Y-14790191D02*
X14364765Y-14799715D01*
X14364765Y-14799715D02*
X14383812Y-14809239D01*
X14383812Y-14809239D02*
X14421908Y-14809239D01*
X14421908Y-14809239D02*
X14440955Y-14799715D01*
X14440955Y-14799715D02*
X14450479Y-14790191D01*
X14450479Y-14790191D02*
X14460003Y-14771143D01*
X14460003Y-14771143D02*
X14460003Y-14733048D01*
X14460003Y-14733048D02*
X14450479Y-14714001D01*
X14450479Y-14714001D02*
X14440955Y-14704477D01*
X14440955Y-14704477D02*
X14421908Y-14694953D01*
X14574289Y-14694953D02*
X14555241Y-14685429D01*
X14555241Y-14685429D02*
X14545717Y-14675905D01*
X14545717Y-14675905D02*
X14536193Y-14656858D01*
X14536193Y-14656858D02*
X14536193Y-14647334D01*
X14536193Y-14647334D02*
X14545717Y-14628286D01*
X14545717Y-14628286D02*
X14555241Y-14618763D01*
X14555241Y-14618763D02*
X14574289Y-14609239D01*
X14574289Y-14609239D02*
X14612384Y-14609239D01*
X14612384Y-14609239D02*
X14631432Y-14618763D01*
X14631432Y-14618763D02*
X14640955Y-14628286D01*
X14640955Y-14628286D02*
X14650479Y-14647334D01*
X14650479Y-14647334D02*
X14650479Y-14656858D01*
X14650479Y-14656858D02*
X14640955Y-14675905D01*
X14640955Y-14675905D02*
X14631432Y-14685429D01*
X14631432Y-14685429D02*
X14612384Y-14694953D01*
X14612384Y-14694953D02*
X14574289Y-14694953D01*
X14574289Y-14694953D02*
X14555241Y-14704477D01*
X14555241Y-14704477D02*
X14545717Y-14714001D01*
X14545717Y-14714001D02*
X14536193Y-14733048D01*
X14536193Y-14733048D02*
X14536193Y-14771143D01*
X14536193Y-14771143D02*
X14545717Y-14790191D01*
X14545717Y-14790191D02*
X14555241Y-14799715D01*
X14555241Y-14799715D02*
X14574289Y-14809239D01*
X14574289Y-14809239D02*
X14612384Y-14809239D01*
X14612384Y-14809239D02*
X14631432Y-14799715D01*
X14631432Y-14799715D02*
X14640955Y-14790191D01*
X14640955Y-14790191D02*
X14650479Y-14771143D01*
X14650479Y-14771143D02*
X14650479Y-14733048D01*
X14650479Y-14733048D02*
X14640955Y-14714001D01*
X14640955Y-14714001D02*
X14631432Y-14704477D01*
X14631432Y-14704477D02*
X14612384Y-14694953D01*
X14745717Y-14809239D02*
X14783812Y-14809239D01*
X14783812Y-14809239D02*
X14802860Y-14799715D01*
X14802860Y-14799715D02*
X14812384Y-14790191D01*
X14812384Y-14790191D02*
X14831432Y-14761620D01*
X14831432Y-14761620D02*
X14840955Y-14723524D01*
X14840955Y-14723524D02*
X14840955Y-14647334D01*
X14840955Y-14647334D02*
X14831432Y-14628286D01*
X14831432Y-14628286D02*
X14821908Y-14618763D01*
X14821908Y-14618763D02*
X14802860Y-14609239D01*
X14802860Y-14609239D02*
X14764765Y-14609239D01*
X14764765Y-14609239D02*
X14745717Y-14618763D01*
X14745717Y-14618763D02*
X14736193Y-14628286D01*
X14736193Y-14628286D02*
X14726670Y-14647334D01*
X14726670Y-14647334D02*
X14726670Y-14694953D01*
X14726670Y-14694953D02*
X14736193Y-14714001D01*
X14736193Y-14714001D02*
X14745717Y-14723524D01*
X14745717Y-14723524D02*
X14764765Y-14733048D01*
X14764765Y-14733048D02*
X14802860Y-14733048D01*
X14802860Y-14733048D02*
X14821908Y-14723524D01*
X14821908Y-14723524D02*
X14831432Y-14714001D01*
X14831432Y-14714001D02*
X14840955Y-14694953D01*
X14926670Y-14809239D02*
X14926670Y-14675905D01*
X14926670Y-14694953D02*
X14936193Y-14685429D01*
X14936193Y-14685429D02*
X14955241Y-14675905D01*
X14955241Y-14675905D02*
X14983813Y-14675905D01*
X14983813Y-14675905D02*
X15002860Y-14685429D01*
X15002860Y-14685429D02*
X15012384Y-14704477D01*
X15012384Y-14704477D02*
X15012384Y-14809239D01*
X15012384Y-14704477D02*
X15021908Y-14685429D01*
X15021908Y-14685429D02*
X15040955Y-14675905D01*
X15040955Y-14675905D02*
X15069527Y-14675905D01*
X15069527Y-14675905D02*
X15088574Y-14685429D01*
X15088574Y-14685429D02*
X15098098Y-14704477D01*
X15098098Y-14704477D02*
X15098098Y-14809239D01*
X15193336Y-14809239D02*
X15193336Y-14675905D01*
X15193336Y-14694953D02*
X15202860Y-14685429D01*
X15202860Y-14685429D02*
X15221908Y-14675905D01*
X15221908Y-14675905D02*
X15250479Y-14675905D01*
X15250479Y-14675905D02*
X15269527Y-14685429D01*
X15269527Y-14685429D02*
X15279051Y-14704477D01*
X15279051Y-14704477D02*
X15279051Y-14809239D01*
X15279051Y-14704477D02*
X15288574Y-14685429D01*
X15288574Y-14685429D02*
X15307622Y-14675905D01*
X15307622Y-14675905D02*
X15336193Y-14675905D01*
X15336193Y-14675905D02*
X15355241Y-14685429D01*
X15355241Y-14685429D02*
X15364765Y-14704477D01*
X15364765Y-14704477D02*
X15364765Y-14809239D01*
X15755241Y-14599715D02*
X15583813Y-14856858D01*
X16012384Y-14609239D02*
X16031432Y-14609239D01*
X16031432Y-14609239D02*
X16050479Y-14618763D01*
X16050479Y-14618763D02*
X16060003Y-14628286D01*
X16060003Y-14628286D02*
X16069527Y-14647334D01*
X16069527Y-14647334D02*
X16079051Y-14685429D01*
X16079051Y-14685429D02*
X16079051Y-14733048D01*
X16079051Y-14733048D02*
X16069527Y-14771143D01*
X16069527Y-14771143D02*
X16060003Y-14790191D01*
X16060003Y-14790191D02*
X16050479Y-14799715D01*
X16050479Y-14799715D02*
X16031432Y-14809239D01*
X16031432Y-14809239D02*
X16012384Y-14809239D01*
X16012384Y-14809239D02*
X15993336Y-14799715D01*
X15993336Y-14799715D02*
X15983813Y-14790191D01*
X15983813Y-14790191D02*
X15974289Y-14771143D01*
X15974289Y-14771143D02*
X15964765Y-14733048D01*
X15964765Y-14733048D02*
X15964765Y-14685429D01*
X15964765Y-14685429D02*
X15974289Y-14647334D01*
X15974289Y-14647334D02*
X15983813Y-14628286D01*
X15983813Y-14628286D02*
X15993336Y-14618763D01*
X15993336Y-14618763D02*
X16012384Y-14609239D01*
X16164765Y-14790191D02*
X16174289Y-14799715D01*
X16174289Y-14799715D02*
X16164765Y-14809239D01*
X16164765Y-14809239D02*
X16155241Y-14799715D01*
X16155241Y-14799715D02*
X16164765Y-14790191D01*
X16164765Y-14790191D02*
X16164765Y-14809239D01*
X16298098Y-14609239D02*
X16317146Y-14609239D01*
X16317146Y-14609239D02*
X16336194Y-14618763D01*
X16336194Y-14618763D02*
X16345717Y-14628286D01*
X16345717Y-14628286D02*
X16355241Y-14647334D01*
X16355241Y-14647334D02*
X16364765Y-14685429D01*
X16364765Y-14685429D02*
X16364765Y-14733048D01*
X16364765Y-14733048D02*
X16355241Y-14771143D01*
X16355241Y-14771143D02*
X16345717Y-14790191D01*
X16345717Y-14790191D02*
X16336194Y-14799715D01*
X16336194Y-14799715D02*
X16317146Y-14809239D01*
X16317146Y-14809239D02*
X16298098Y-14809239D01*
X16298098Y-14809239D02*
X16279051Y-14799715D01*
X16279051Y-14799715D02*
X16269527Y-14790191D01*
X16269527Y-14790191D02*
X16260003Y-14771143D01*
X16260003Y-14771143D02*
X16250479Y-14733048D01*
X16250479Y-14733048D02*
X16250479Y-14685429D01*
X16250479Y-14685429D02*
X16260003Y-14647334D01*
X16260003Y-14647334D02*
X16269527Y-14628286D01*
X16269527Y-14628286D02*
X16279051Y-14618763D01*
X16279051Y-14618763D02*
X16298098Y-14609239D01*
X16431432Y-14609239D02*
X16555241Y-14609239D01*
X16555241Y-14609239D02*
X16488575Y-14685429D01*
X16488575Y-14685429D02*
X16517146Y-14685429D01*
X16517146Y-14685429D02*
X16536194Y-14694953D01*
X16536194Y-14694953D02*
X16545717Y-14704477D01*
X16545717Y-14704477D02*
X16555241Y-14723524D01*
X16555241Y-14723524D02*
X16555241Y-14771143D01*
X16555241Y-14771143D02*
X16545717Y-14790191D01*
X16545717Y-14790191D02*
X16536194Y-14799715D01*
X16536194Y-14799715D02*
X16517146Y-14809239D01*
X16517146Y-14809239D02*
X16460003Y-14809239D01*
X16460003Y-14809239D02*
X16440956Y-14799715D01*
X16440956Y-14799715D02*
X16431432Y-14790191D01*
X16736194Y-14609239D02*
X16640956Y-14609239D01*
X16640956Y-14609239D02*
X16631432Y-14704477D01*
X16631432Y-14704477D02*
X16640956Y-14694953D01*
X16640956Y-14694953D02*
X16660003Y-14685429D01*
X16660003Y-14685429D02*
X16707622Y-14685429D01*
X16707622Y-14685429D02*
X16726670Y-14694953D01*
X16726670Y-14694953D02*
X16736194Y-14704477D01*
X16736194Y-14704477D02*
X16745717Y-14723524D01*
X16745717Y-14723524D02*
X16745717Y-14771143D01*
X16745717Y-14771143D02*
X16736194Y-14790191D01*
X16736194Y-14790191D02*
X16726670Y-14799715D01*
X16726670Y-14799715D02*
X16707622Y-14809239D01*
X16707622Y-14809239D02*
X16660003Y-14809239D01*
X16660003Y-14809239D02*
X16640956Y-14799715D01*
X16640956Y-14799715D02*
X16631432Y-14790191D01*
X16869527Y-14609239D02*
X16888575Y-14609239D01*
X16888575Y-14609239D02*
X16907622Y-14618763D01*
X16907622Y-14618763D02*
X16917146Y-14628286D01*
X16917146Y-14628286D02*
X16926670Y-14647334D01*
X16926670Y-14647334D02*
X16936194Y-14685429D01*
X16936194Y-14685429D02*
X16936194Y-14733048D01*
X16936194Y-14733048D02*
X16926670Y-14771143D01*
X16926670Y-14771143D02*
X16917146Y-14790191D01*
X16917146Y-14790191D02*
X16907622Y-14799715D01*
X16907622Y-14799715D02*
X16888575Y-14809239D01*
X16888575Y-14809239D02*
X16869527Y-14809239D01*
X16869527Y-14809239D02*
X16850479Y-14799715D01*
X16850479Y-14799715D02*
X16840956Y-14790191D01*
X16840956Y-14790191D02*
X16831432Y-14771143D01*
X16831432Y-14771143D02*
X16821908Y-14733048D01*
X16821908Y-14733048D02*
X16821908Y-14685429D01*
X16821908Y-14685429D02*
X16831432Y-14647334D01*
X16831432Y-14647334D02*
X16840956Y-14628286D01*
X16840956Y-14628286D02*
X16850479Y-14618763D01*
X16850479Y-14618763D02*
X16869527Y-14609239D01*
X17012384Y-14609239D02*
X17012384Y-14647334D01*
X17088575Y-14609239D02*
X17088575Y-14647334D01*
X17383813Y-14885429D02*
X17374289Y-14875905D01*
X17374289Y-14875905D02*
X17355241Y-14847334D01*
X17355241Y-14847334D02*
X17345718Y-14828286D01*
X17345718Y-14828286D02*
X17336194Y-14799715D01*
X17336194Y-14799715D02*
X17326670Y-14752096D01*
X17326670Y-14752096D02*
X17326670Y-14714001D01*
X17326670Y-14714001D02*
X17336194Y-14666382D01*
X17336194Y-14666382D02*
X17345718Y-14637810D01*
X17345718Y-14637810D02*
X17355241Y-14618763D01*
X17355241Y-14618763D02*
X17374289Y-14590191D01*
X17374289Y-14590191D02*
X17383813Y-14580667D01*
X17564765Y-14809239D02*
X17450480Y-14809239D01*
X17507622Y-14809239D02*
X17507622Y-14609239D01*
X17507622Y-14609239D02*
X17488575Y-14637810D01*
X17488575Y-14637810D02*
X17469527Y-14656858D01*
X17469527Y-14656858D02*
X17450480Y-14666382D01*
X17736194Y-14675905D02*
X17736194Y-14809239D01*
X17688575Y-14599715D02*
X17640956Y-14742572D01*
X17640956Y-14742572D02*
X17764765Y-14742572D01*
X17993337Y-14809239D02*
X17993337Y-14609239D01*
X18079051Y-14809239D02*
X18079051Y-14704477D01*
X18079051Y-14704477D02*
X18069527Y-14685429D01*
X18069527Y-14685429D02*
X18050480Y-14675905D01*
X18050480Y-14675905D02*
X18021908Y-14675905D01*
X18021908Y-14675905D02*
X18002861Y-14685429D01*
X18002861Y-14685429D02*
X17993337Y-14694953D01*
X18202861Y-14809239D02*
X18183813Y-14799715D01*
X18183813Y-14799715D02*
X18174289Y-14790191D01*
X18174289Y-14790191D02*
X18164765Y-14771143D01*
X18164765Y-14771143D02*
X18164765Y-14714001D01*
X18164765Y-14714001D02*
X18174289Y-14694953D01*
X18174289Y-14694953D02*
X18183813Y-14685429D01*
X18183813Y-14685429D02*
X18202861Y-14675905D01*
X18202861Y-14675905D02*
X18231432Y-14675905D01*
X18231432Y-14675905D02*
X18250480Y-14685429D01*
X18250480Y-14685429D02*
X18260003Y-14694953D01*
X18260003Y-14694953D02*
X18269527Y-14714001D01*
X18269527Y-14714001D02*
X18269527Y-14771143D01*
X18269527Y-14771143D02*
X18260003Y-14790191D01*
X18260003Y-14790191D02*
X18250480Y-14799715D01*
X18250480Y-14799715D02*
X18231432Y-14809239D01*
X18231432Y-14809239D02*
X18202861Y-14809239D01*
X18383813Y-14809239D02*
X18364765Y-14799715D01*
X18364765Y-14799715D02*
X18355242Y-14780667D01*
X18355242Y-14780667D02*
X18355242Y-14609239D01*
X18536194Y-14799715D02*
X18517146Y-14809239D01*
X18517146Y-14809239D02*
X18479051Y-14809239D01*
X18479051Y-14809239D02*
X18460003Y-14799715D01*
X18460003Y-14799715D02*
X18450480Y-14780667D01*
X18450480Y-14780667D02*
X18450480Y-14704477D01*
X18450480Y-14704477D02*
X18460003Y-14685429D01*
X18460003Y-14685429D02*
X18479051Y-14675905D01*
X18479051Y-14675905D02*
X18517146Y-14675905D01*
X18517146Y-14675905D02*
X18536194Y-14685429D01*
X18536194Y-14685429D02*
X18545718Y-14704477D01*
X18545718Y-14704477D02*
X18545718Y-14723524D01*
X18545718Y-14723524D02*
X18450480Y-14742572D01*
X18621908Y-14799715D02*
X18640956Y-14809239D01*
X18640956Y-14809239D02*
X18679051Y-14809239D01*
X18679051Y-14809239D02*
X18698099Y-14799715D01*
X18698099Y-14799715D02*
X18707623Y-14780667D01*
X18707623Y-14780667D02*
X18707623Y-14771143D01*
X18707623Y-14771143D02*
X18698099Y-14752096D01*
X18698099Y-14752096D02*
X18679051Y-14742572D01*
X18679051Y-14742572D02*
X18650480Y-14742572D01*
X18650480Y-14742572D02*
X18631432Y-14733048D01*
X18631432Y-14733048D02*
X18621908Y-14714001D01*
X18621908Y-14714001D02*
X18621908Y-14704477D01*
X18621908Y-14704477D02*
X18631432Y-14685429D01*
X18631432Y-14685429D02*
X18650480Y-14675905D01*
X18650480Y-14675905D02*
X18679051Y-14675905D01*
X18679051Y-14675905D02*
X18698099Y-14685429D01*
X18774289Y-14885429D02*
X18783813Y-14875905D01*
X18783813Y-14875905D02*
X18802861Y-14847334D01*
X18802861Y-14847334D02*
X18812384Y-14828286D01*
X18812384Y-14828286D02*
X18821908Y-14799715D01*
X18821908Y-14799715D02*
X18831432Y-14752096D01*
X18831432Y-14752096D02*
X18831432Y-14714001D01*
X18831432Y-14714001D02*
X18821908Y-14666382D01*
X18821908Y-14666382D02*
X18812384Y-14637810D01*
X18812384Y-14637810D02*
X18802861Y-14618763D01*
X18802861Y-14618763D02*
X18783813Y-14590191D01*
X18783813Y-14590191D02*
X18774289Y-14580667D01*
D12*
X13758750Y-14931755D02*
X13758750Y-15031755D01*
X13708750Y-14981755D02*
X13808750Y-14981755D01*
D11*
X14174289Y-15073239D02*
X14060003Y-15073239D01*
X14117146Y-15073239D02*
X14117146Y-14873239D01*
X14117146Y-14873239D02*
X14098098Y-14901810D01*
X14098098Y-14901810D02*
X14079051Y-14920858D01*
X14079051Y-14920858D02*
X14060003Y-14930382D01*
X14260003Y-15054191D02*
X14269527Y-15063715D01*
X14269527Y-15063715D02*
X14260003Y-15073239D01*
X14260003Y-15073239D02*
X14250479Y-15063715D01*
X14250479Y-15063715D02*
X14260003Y-15054191D01*
X14260003Y-15054191D02*
X14260003Y-15073239D01*
X14393336Y-14873239D02*
X14412384Y-14873239D01*
X14412384Y-14873239D02*
X14431432Y-14882763D01*
X14431432Y-14882763D02*
X14440955Y-14892286D01*
X14440955Y-14892286D02*
X14450479Y-14911334D01*
X14450479Y-14911334D02*
X14460003Y-14949429D01*
X14460003Y-14949429D02*
X14460003Y-14997048D01*
X14460003Y-14997048D02*
X14450479Y-15035143D01*
X14450479Y-15035143D02*
X14440955Y-15054191D01*
X14440955Y-15054191D02*
X14431432Y-15063715D01*
X14431432Y-15063715D02*
X14412384Y-15073239D01*
X14412384Y-15073239D02*
X14393336Y-15073239D01*
X14393336Y-15073239D02*
X14374289Y-15063715D01*
X14374289Y-15063715D02*
X14364765Y-15054191D01*
X14364765Y-15054191D02*
X14355241Y-15035143D01*
X14355241Y-15035143D02*
X14345717Y-14997048D01*
X14345717Y-14997048D02*
X14345717Y-14949429D01*
X14345717Y-14949429D02*
X14355241Y-14911334D01*
X14355241Y-14911334D02*
X14364765Y-14892286D01*
X14364765Y-14892286D02*
X14374289Y-14882763D01*
X14374289Y-14882763D02*
X14393336Y-14873239D01*
X14583812Y-14873239D02*
X14602860Y-14873239D01*
X14602860Y-14873239D02*
X14621908Y-14882763D01*
X14621908Y-14882763D02*
X14631432Y-14892286D01*
X14631432Y-14892286D02*
X14640955Y-14911334D01*
X14640955Y-14911334D02*
X14650479Y-14949429D01*
X14650479Y-14949429D02*
X14650479Y-14997048D01*
X14650479Y-14997048D02*
X14640955Y-15035143D01*
X14640955Y-15035143D02*
X14631432Y-15054191D01*
X14631432Y-15054191D02*
X14621908Y-15063715D01*
X14621908Y-15063715D02*
X14602860Y-15073239D01*
X14602860Y-15073239D02*
X14583812Y-15073239D01*
X14583812Y-15073239D02*
X14564765Y-15063715D01*
X14564765Y-15063715D02*
X14555241Y-15054191D01*
X14555241Y-15054191D02*
X14545717Y-15035143D01*
X14545717Y-15035143D02*
X14536193Y-14997048D01*
X14536193Y-14997048D02*
X14536193Y-14949429D01*
X14536193Y-14949429D02*
X14545717Y-14911334D01*
X14545717Y-14911334D02*
X14555241Y-14892286D01*
X14555241Y-14892286D02*
X14564765Y-14882763D01*
X14564765Y-14882763D02*
X14583812Y-14873239D01*
X14774289Y-14873239D02*
X14793336Y-14873239D01*
X14793336Y-14873239D02*
X14812384Y-14882763D01*
X14812384Y-14882763D02*
X14821908Y-14892286D01*
X14821908Y-14892286D02*
X14831432Y-14911334D01*
X14831432Y-14911334D02*
X14840955Y-14949429D01*
X14840955Y-14949429D02*
X14840955Y-14997048D01*
X14840955Y-14997048D02*
X14831432Y-15035143D01*
X14831432Y-15035143D02*
X14821908Y-15054191D01*
X14821908Y-15054191D02*
X14812384Y-15063715D01*
X14812384Y-15063715D02*
X14793336Y-15073239D01*
X14793336Y-15073239D02*
X14774289Y-15073239D01*
X14774289Y-15073239D02*
X14755241Y-15063715D01*
X14755241Y-15063715D02*
X14745717Y-15054191D01*
X14745717Y-15054191D02*
X14736193Y-15035143D01*
X14736193Y-15035143D02*
X14726670Y-14997048D01*
X14726670Y-14997048D02*
X14726670Y-14949429D01*
X14726670Y-14949429D02*
X14736193Y-14911334D01*
X14736193Y-14911334D02*
X14745717Y-14892286D01*
X14745717Y-14892286D02*
X14755241Y-14882763D01*
X14755241Y-14882763D02*
X14774289Y-14873239D01*
X14926670Y-15073239D02*
X14926670Y-14939905D01*
X14926670Y-14958953D02*
X14936193Y-14949429D01*
X14936193Y-14949429D02*
X14955241Y-14939905D01*
X14955241Y-14939905D02*
X14983813Y-14939905D01*
X14983813Y-14939905D02*
X15002860Y-14949429D01*
X15002860Y-14949429D02*
X15012384Y-14968477D01*
X15012384Y-14968477D02*
X15012384Y-15073239D01*
X15012384Y-14968477D02*
X15021908Y-14949429D01*
X15021908Y-14949429D02*
X15040955Y-14939905D01*
X15040955Y-14939905D02*
X15069527Y-14939905D01*
X15069527Y-14939905D02*
X15088574Y-14949429D01*
X15088574Y-14949429D02*
X15098098Y-14968477D01*
X15098098Y-14968477D02*
X15098098Y-15073239D01*
X15193336Y-15073239D02*
X15193336Y-14939905D01*
X15193336Y-14958953D02*
X15202860Y-14949429D01*
X15202860Y-14949429D02*
X15221908Y-14939905D01*
X15221908Y-14939905D02*
X15250479Y-14939905D01*
X15250479Y-14939905D02*
X15269527Y-14949429D01*
X15269527Y-14949429D02*
X15279051Y-14968477D01*
X15279051Y-14968477D02*
X15279051Y-15073239D01*
X15279051Y-14968477D02*
X15288574Y-14949429D01*
X15288574Y-14949429D02*
X15307622Y-14939905D01*
X15307622Y-14939905D02*
X15336193Y-14939905D01*
X15336193Y-14939905D02*
X15355241Y-14949429D01*
X15355241Y-14949429D02*
X15364765Y-14968477D01*
X15364765Y-14968477D02*
X15364765Y-15073239D01*
X15755241Y-14863715D02*
X15583813Y-15120858D01*
X16012384Y-14873239D02*
X16031432Y-14873239D01*
X16031432Y-14873239D02*
X16050479Y-14882763D01*
X16050479Y-14882763D02*
X16060003Y-14892286D01*
X16060003Y-14892286D02*
X16069527Y-14911334D01*
X16069527Y-14911334D02*
X16079051Y-14949429D01*
X16079051Y-14949429D02*
X16079051Y-14997048D01*
X16079051Y-14997048D02*
X16069527Y-15035143D01*
X16069527Y-15035143D02*
X16060003Y-15054191D01*
X16060003Y-15054191D02*
X16050479Y-15063715D01*
X16050479Y-15063715D02*
X16031432Y-15073239D01*
X16031432Y-15073239D02*
X16012384Y-15073239D01*
X16012384Y-15073239D02*
X15993336Y-15063715D01*
X15993336Y-15063715D02*
X15983813Y-15054191D01*
X15983813Y-15054191D02*
X15974289Y-15035143D01*
X15974289Y-15035143D02*
X15964765Y-14997048D01*
X15964765Y-14997048D02*
X15964765Y-14949429D01*
X15964765Y-14949429D02*
X15974289Y-14911334D01*
X15974289Y-14911334D02*
X15983813Y-14892286D01*
X15983813Y-14892286D02*
X15993336Y-14882763D01*
X15993336Y-14882763D02*
X16012384Y-14873239D01*
X16164765Y-15054191D02*
X16174289Y-15063715D01*
X16174289Y-15063715D02*
X16164765Y-15073239D01*
X16164765Y-15073239D02*
X16155241Y-15063715D01*
X16155241Y-15063715D02*
X16164765Y-15054191D01*
X16164765Y-15054191D02*
X16164765Y-15073239D01*
X16298098Y-14873239D02*
X16317146Y-14873239D01*
X16317146Y-14873239D02*
X16336194Y-14882763D01*
X16336194Y-14882763D02*
X16345717Y-14892286D01*
X16345717Y-14892286D02*
X16355241Y-14911334D01*
X16355241Y-14911334D02*
X16364765Y-14949429D01*
X16364765Y-14949429D02*
X16364765Y-14997048D01*
X16364765Y-14997048D02*
X16355241Y-15035143D01*
X16355241Y-15035143D02*
X16345717Y-15054191D01*
X16345717Y-15054191D02*
X16336194Y-15063715D01*
X16336194Y-15063715D02*
X16317146Y-15073239D01*
X16317146Y-15073239D02*
X16298098Y-15073239D01*
X16298098Y-15073239D02*
X16279051Y-15063715D01*
X16279051Y-15063715D02*
X16269527Y-15054191D01*
X16269527Y-15054191D02*
X16260003Y-15035143D01*
X16260003Y-15035143D02*
X16250479Y-14997048D01*
X16250479Y-14997048D02*
X16250479Y-14949429D01*
X16250479Y-14949429D02*
X16260003Y-14911334D01*
X16260003Y-14911334D02*
X16269527Y-14892286D01*
X16269527Y-14892286D02*
X16279051Y-14882763D01*
X16279051Y-14882763D02*
X16298098Y-14873239D01*
X16431432Y-14873239D02*
X16555241Y-14873239D01*
X16555241Y-14873239D02*
X16488575Y-14949429D01*
X16488575Y-14949429D02*
X16517146Y-14949429D01*
X16517146Y-14949429D02*
X16536194Y-14958953D01*
X16536194Y-14958953D02*
X16545717Y-14968477D01*
X16545717Y-14968477D02*
X16555241Y-14987524D01*
X16555241Y-14987524D02*
X16555241Y-15035143D01*
X16555241Y-15035143D02*
X16545717Y-15054191D01*
X16545717Y-15054191D02*
X16536194Y-15063715D01*
X16536194Y-15063715D02*
X16517146Y-15073239D01*
X16517146Y-15073239D02*
X16460003Y-15073239D01*
X16460003Y-15073239D02*
X16440956Y-15063715D01*
X16440956Y-15063715D02*
X16431432Y-15054191D01*
X16650479Y-15073239D02*
X16688575Y-15073239D01*
X16688575Y-15073239D02*
X16707622Y-15063715D01*
X16707622Y-15063715D02*
X16717146Y-15054191D01*
X16717146Y-15054191D02*
X16736194Y-15025620D01*
X16736194Y-15025620D02*
X16745717Y-14987524D01*
X16745717Y-14987524D02*
X16745717Y-14911334D01*
X16745717Y-14911334D02*
X16736194Y-14892286D01*
X16736194Y-14892286D02*
X16726670Y-14882763D01*
X16726670Y-14882763D02*
X16707622Y-14873239D01*
X16707622Y-14873239D02*
X16669527Y-14873239D01*
X16669527Y-14873239D02*
X16650479Y-14882763D01*
X16650479Y-14882763D02*
X16640956Y-14892286D01*
X16640956Y-14892286D02*
X16631432Y-14911334D01*
X16631432Y-14911334D02*
X16631432Y-14958953D01*
X16631432Y-14958953D02*
X16640956Y-14978001D01*
X16640956Y-14978001D02*
X16650479Y-14987524D01*
X16650479Y-14987524D02*
X16669527Y-14997048D01*
X16669527Y-14997048D02*
X16707622Y-14997048D01*
X16707622Y-14997048D02*
X16726670Y-14987524D01*
X16726670Y-14987524D02*
X16736194Y-14978001D01*
X16736194Y-14978001D02*
X16745717Y-14958953D01*
X16917146Y-14939905D02*
X16917146Y-15073239D01*
X16869527Y-14863715D02*
X16821908Y-15006572D01*
X16821908Y-15006572D02*
X16945718Y-15006572D01*
X17012384Y-14873239D02*
X17012384Y-14911334D01*
X17088575Y-14873239D02*
X17088575Y-14911334D01*
X17383813Y-15149429D02*
X17374289Y-15139905D01*
X17374289Y-15139905D02*
X17355241Y-15111334D01*
X17355241Y-15111334D02*
X17345718Y-15092286D01*
X17345718Y-15092286D02*
X17336194Y-15063715D01*
X17336194Y-15063715D02*
X17326670Y-15016096D01*
X17326670Y-15016096D02*
X17326670Y-14978001D01*
X17326670Y-14978001D02*
X17336194Y-14930382D01*
X17336194Y-14930382D02*
X17345718Y-14901810D01*
X17345718Y-14901810D02*
X17355241Y-14882763D01*
X17355241Y-14882763D02*
X17374289Y-14854191D01*
X17374289Y-14854191D02*
X17383813Y-14844667D01*
X17545718Y-14939905D02*
X17545718Y-15073239D01*
X17498099Y-14863715D02*
X17450480Y-15006572D01*
X17450480Y-15006572D02*
X17574289Y-15006572D01*
X17802861Y-15073239D02*
X17802861Y-14873239D01*
X17888575Y-15073239D02*
X17888575Y-14968477D01*
X17888575Y-14968477D02*
X17879051Y-14949429D01*
X17879051Y-14949429D02*
X17860003Y-14939905D01*
X17860003Y-14939905D02*
X17831432Y-14939905D01*
X17831432Y-14939905D02*
X17812384Y-14949429D01*
X17812384Y-14949429D02*
X17802861Y-14958953D01*
X18012384Y-15073239D02*
X17993337Y-15063715D01*
X17993337Y-15063715D02*
X17983813Y-15054191D01*
X17983813Y-15054191D02*
X17974289Y-15035143D01*
X17974289Y-15035143D02*
X17974289Y-14978001D01*
X17974289Y-14978001D02*
X17983813Y-14958953D01*
X17983813Y-14958953D02*
X17993337Y-14949429D01*
X17993337Y-14949429D02*
X18012384Y-14939905D01*
X18012384Y-14939905D02*
X18040956Y-14939905D01*
X18040956Y-14939905D02*
X18060003Y-14949429D01*
X18060003Y-14949429D02*
X18069527Y-14958953D01*
X18069527Y-14958953D02*
X18079051Y-14978001D01*
X18079051Y-14978001D02*
X18079051Y-15035143D01*
X18079051Y-15035143D02*
X18069527Y-15054191D01*
X18069527Y-15054191D02*
X18060003Y-15063715D01*
X18060003Y-15063715D02*
X18040956Y-15073239D01*
X18040956Y-15073239D02*
X18012384Y-15073239D01*
X18193337Y-15073239D02*
X18174289Y-15063715D01*
X18174289Y-15063715D02*
X18164765Y-15044667D01*
X18164765Y-15044667D02*
X18164765Y-14873239D01*
X18345718Y-15063715D02*
X18326670Y-15073239D01*
X18326670Y-15073239D02*
X18288575Y-15073239D01*
X18288575Y-15073239D02*
X18269527Y-15063715D01*
X18269527Y-15063715D02*
X18260003Y-15044667D01*
X18260003Y-15044667D02*
X18260003Y-14968477D01*
X18260003Y-14968477D02*
X18269527Y-14949429D01*
X18269527Y-14949429D02*
X18288575Y-14939905D01*
X18288575Y-14939905D02*
X18326670Y-14939905D01*
X18326670Y-14939905D02*
X18345718Y-14949429D01*
X18345718Y-14949429D02*
X18355242Y-14968477D01*
X18355242Y-14968477D02*
X18355242Y-14987524D01*
X18355242Y-14987524D02*
X18260003Y-15006572D01*
X18431432Y-15063715D02*
X18450480Y-15073239D01*
X18450480Y-15073239D02*
X18488575Y-15073239D01*
X18488575Y-15073239D02*
X18507623Y-15063715D01*
X18507623Y-15063715D02*
X18517146Y-15044667D01*
X18517146Y-15044667D02*
X18517146Y-15035143D01*
X18517146Y-15035143D02*
X18507623Y-15016096D01*
X18507623Y-15016096D02*
X18488575Y-15006572D01*
X18488575Y-15006572D02*
X18460003Y-15006572D01*
X18460003Y-15006572D02*
X18440956Y-14997048D01*
X18440956Y-14997048D02*
X18431432Y-14978001D01*
X18431432Y-14978001D02*
X18431432Y-14968477D01*
X18431432Y-14968477D02*
X18440956Y-14949429D01*
X18440956Y-14949429D02*
X18460003Y-14939905D01*
X18460003Y-14939905D02*
X18488575Y-14939905D01*
X18488575Y-14939905D02*
X18507623Y-14949429D01*
X18583813Y-15149429D02*
X18593337Y-15139905D01*
X18593337Y-15139905D02*
X18612384Y-15111334D01*
X18612384Y-15111334D02*
X18621908Y-15092286D01*
X18621908Y-15092286D02*
X18631432Y-15063715D01*
X18631432Y-15063715D02*
X18640956Y-15016096D01*
X18640956Y-15016096D02*
X18640956Y-14978001D01*
X18640956Y-14978001D02*
X18631432Y-14930382D01*
X18631432Y-14930382D02*
X18621908Y-14901810D01*
X18621908Y-14901810D02*
X18612384Y-14882763D01*
X18612384Y-14882763D02*
X18593337Y-14854191D01*
X18593337Y-14854191D02*
X18583813Y-14844667D01*
D13*
X13786783Y-15298788D02*
X13786783Y-15192721D01*
X13680716Y-15192721D01*
X13680716Y-15298788D01*
X13786783Y-15298788D01*
D11*
X14174289Y-15337239D02*
X14060003Y-15337239D01*
X14117146Y-15337239D02*
X14117146Y-15137239D01*
X14117146Y-15137239D02*
X14098098Y-15165810D01*
X14098098Y-15165810D02*
X14079051Y-15184858D01*
X14079051Y-15184858D02*
X14060003Y-15194382D01*
X14260003Y-15318191D02*
X14269527Y-15327715D01*
X14269527Y-15327715D02*
X14260003Y-15337239D01*
X14260003Y-15337239D02*
X14250479Y-15327715D01*
X14250479Y-15327715D02*
X14260003Y-15318191D01*
X14260003Y-15318191D02*
X14260003Y-15337239D01*
X14450479Y-15137239D02*
X14355241Y-15137239D01*
X14355241Y-15137239D02*
X14345717Y-15232477D01*
X14345717Y-15232477D02*
X14355241Y-15222953D01*
X14355241Y-15222953D02*
X14374289Y-15213429D01*
X14374289Y-15213429D02*
X14421908Y-15213429D01*
X14421908Y-15213429D02*
X14440955Y-15222953D01*
X14440955Y-15222953D02*
X14450479Y-15232477D01*
X14450479Y-15232477D02*
X14460003Y-15251524D01*
X14460003Y-15251524D02*
X14460003Y-15299143D01*
X14460003Y-15299143D02*
X14450479Y-15318191D01*
X14450479Y-15318191D02*
X14440955Y-15327715D01*
X14440955Y-15327715D02*
X14421908Y-15337239D01*
X14421908Y-15337239D02*
X14374289Y-15337239D01*
X14374289Y-15337239D02*
X14355241Y-15327715D01*
X14355241Y-15327715D02*
X14345717Y-15318191D01*
X14583812Y-15137239D02*
X14602860Y-15137239D01*
X14602860Y-15137239D02*
X14621908Y-15146763D01*
X14621908Y-15146763D02*
X14631432Y-15156286D01*
X14631432Y-15156286D02*
X14640955Y-15175334D01*
X14640955Y-15175334D02*
X14650479Y-15213429D01*
X14650479Y-15213429D02*
X14650479Y-15261048D01*
X14650479Y-15261048D02*
X14640955Y-15299143D01*
X14640955Y-15299143D02*
X14631432Y-15318191D01*
X14631432Y-15318191D02*
X14621908Y-15327715D01*
X14621908Y-15327715D02*
X14602860Y-15337239D01*
X14602860Y-15337239D02*
X14583812Y-15337239D01*
X14583812Y-15337239D02*
X14564765Y-15327715D01*
X14564765Y-15327715D02*
X14555241Y-15318191D01*
X14555241Y-15318191D02*
X14545717Y-15299143D01*
X14545717Y-15299143D02*
X14536193Y-15261048D01*
X14536193Y-15261048D02*
X14536193Y-15213429D01*
X14536193Y-15213429D02*
X14545717Y-15175334D01*
X14545717Y-15175334D02*
X14555241Y-15156286D01*
X14555241Y-15156286D02*
X14564765Y-15146763D01*
X14564765Y-15146763D02*
X14583812Y-15137239D01*
X14774289Y-15137239D02*
X14793336Y-15137239D01*
X14793336Y-15137239D02*
X14812384Y-15146763D01*
X14812384Y-15146763D02*
X14821908Y-15156286D01*
X14821908Y-15156286D02*
X14831432Y-15175334D01*
X14831432Y-15175334D02*
X14840955Y-15213429D01*
X14840955Y-15213429D02*
X14840955Y-15261048D01*
X14840955Y-15261048D02*
X14831432Y-15299143D01*
X14831432Y-15299143D02*
X14821908Y-15318191D01*
X14821908Y-15318191D02*
X14812384Y-15327715D01*
X14812384Y-15327715D02*
X14793336Y-15337239D01*
X14793336Y-15337239D02*
X14774289Y-15337239D01*
X14774289Y-15337239D02*
X14755241Y-15327715D01*
X14755241Y-15327715D02*
X14745717Y-15318191D01*
X14745717Y-15318191D02*
X14736193Y-15299143D01*
X14736193Y-15299143D02*
X14726670Y-15261048D01*
X14726670Y-15261048D02*
X14726670Y-15213429D01*
X14726670Y-15213429D02*
X14736193Y-15175334D01*
X14736193Y-15175334D02*
X14745717Y-15156286D01*
X14745717Y-15156286D02*
X14755241Y-15146763D01*
X14755241Y-15146763D02*
X14774289Y-15137239D01*
X14926670Y-15337239D02*
X14926670Y-15203905D01*
X14926670Y-15222953D02*
X14936193Y-15213429D01*
X14936193Y-15213429D02*
X14955241Y-15203905D01*
X14955241Y-15203905D02*
X14983813Y-15203905D01*
X14983813Y-15203905D02*
X15002860Y-15213429D01*
X15002860Y-15213429D02*
X15012384Y-15232477D01*
X15012384Y-15232477D02*
X15012384Y-15337239D01*
X15012384Y-15232477D02*
X15021908Y-15213429D01*
X15021908Y-15213429D02*
X15040955Y-15203905D01*
X15040955Y-15203905D02*
X15069527Y-15203905D01*
X15069527Y-15203905D02*
X15088574Y-15213429D01*
X15088574Y-15213429D02*
X15098098Y-15232477D01*
X15098098Y-15232477D02*
X15098098Y-15337239D01*
X15193336Y-15337239D02*
X15193336Y-15203905D01*
X15193336Y-15222953D02*
X15202860Y-15213429D01*
X15202860Y-15213429D02*
X15221908Y-15203905D01*
X15221908Y-15203905D02*
X15250479Y-15203905D01*
X15250479Y-15203905D02*
X15269527Y-15213429D01*
X15269527Y-15213429D02*
X15279051Y-15232477D01*
X15279051Y-15232477D02*
X15279051Y-15337239D01*
X15279051Y-15232477D02*
X15288574Y-15213429D01*
X15288574Y-15213429D02*
X15307622Y-15203905D01*
X15307622Y-15203905D02*
X15336193Y-15203905D01*
X15336193Y-15203905D02*
X15355241Y-15213429D01*
X15355241Y-15213429D02*
X15364765Y-15232477D01*
X15364765Y-15232477D02*
X15364765Y-15337239D01*
X15755241Y-15127715D02*
X15583813Y-15384858D01*
X16012384Y-15137239D02*
X16031432Y-15137239D01*
X16031432Y-15137239D02*
X16050479Y-15146763D01*
X16050479Y-15146763D02*
X16060003Y-15156286D01*
X16060003Y-15156286D02*
X16069527Y-15175334D01*
X16069527Y-15175334D02*
X16079051Y-15213429D01*
X16079051Y-15213429D02*
X16079051Y-15261048D01*
X16079051Y-15261048D02*
X16069527Y-15299143D01*
X16069527Y-15299143D02*
X16060003Y-15318191D01*
X16060003Y-15318191D02*
X16050479Y-15327715D01*
X16050479Y-15327715D02*
X16031432Y-15337239D01*
X16031432Y-15337239D02*
X16012384Y-15337239D01*
X16012384Y-15337239D02*
X15993336Y-15327715D01*
X15993336Y-15327715D02*
X15983813Y-15318191D01*
X15983813Y-15318191D02*
X15974289Y-15299143D01*
X15974289Y-15299143D02*
X15964765Y-15261048D01*
X15964765Y-15261048D02*
X15964765Y-15213429D01*
X15964765Y-15213429D02*
X15974289Y-15175334D01*
X15974289Y-15175334D02*
X15983813Y-15156286D01*
X15983813Y-15156286D02*
X15993336Y-15146763D01*
X15993336Y-15146763D02*
X16012384Y-15137239D01*
X16164765Y-15318191D02*
X16174289Y-15327715D01*
X16174289Y-15327715D02*
X16164765Y-15337239D01*
X16164765Y-15337239D02*
X16155241Y-15327715D01*
X16155241Y-15327715D02*
X16164765Y-15318191D01*
X16164765Y-15318191D02*
X16164765Y-15337239D01*
X16298098Y-15137239D02*
X16317146Y-15137239D01*
X16317146Y-15137239D02*
X16336194Y-15146763D01*
X16336194Y-15146763D02*
X16345717Y-15156286D01*
X16345717Y-15156286D02*
X16355241Y-15175334D01*
X16355241Y-15175334D02*
X16364765Y-15213429D01*
X16364765Y-15213429D02*
X16364765Y-15261048D01*
X16364765Y-15261048D02*
X16355241Y-15299143D01*
X16355241Y-15299143D02*
X16345717Y-15318191D01*
X16345717Y-15318191D02*
X16336194Y-15327715D01*
X16336194Y-15327715D02*
X16317146Y-15337239D01*
X16317146Y-15337239D02*
X16298098Y-15337239D01*
X16298098Y-15337239D02*
X16279051Y-15327715D01*
X16279051Y-15327715D02*
X16269527Y-15318191D01*
X16269527Y-15318191D02*
X16260003Y-15299143D01*
X16260003Y-15299143D02*
X16250479Y-15261048D01*
X16250479Y-15261048D02*
X16250479Y-15213429D01*
X16250479Y-15213429D02*
X16260003Y-15175334D01*
X16260003Y-15175334D02*
X16269527Y-15156286D01*
X16269527Y-15156286D02*
X16279051Y-15146763D01*
X16279051Y-15146763D02*
X16298098Y-15137239D01*
X16545717Y-15137239D02*
X16450479Y-15137239D01*
X16450479Y-15137239D02*
X16440956Y-15232477D01*
X16440956Y-15232477D02*
X16450479Y-15222953D01*
X16450479Y-15222953D02*
X16469527Y-15213429D01*
X16469527Y-15213429D02*
X16517146Y-15213429D01*
X16517146Y-15213429D02*
X16536194Y-15222953D01*
X16536194Y-15222953D02*
X16545717Y-15232477D01*
X16545717Y-15232477D02*
X16555241Y-15251524D01*
X16555241Y-15251524D02*
X16555241Y-15299143D01*
X16555241Y-15299143D02*
X16545717Y-15318191D01*
X16545717Y-15318191D02*
X16536194Y-15327715D01*
X16536194Y-15327715D02*
X16517146Y-15337239D01*
X16517146Y-15337239D02*
X16469527Y-15337239D01*
X16469527Y-15337239D02*
X16450479Y-15327715D01*
X16450479Y-15327715D02*
X16440956Y-15318191D01*
X16650479Y-15337239D02*
X16688575Y-15337239D01*
X16688575Y-15337239D02*
X16707622Y-15327715D01*
X16707622Y-15327715D02*
X16717146Y-15318191D01*
X16717146Y-15318191D02*
X16736194Y-15289620D01*
X16736194Y-15289620D02*
X16745717Y-15251524D01*
X16745717Y-15251524D02*
X16745717Y-15175334D01*
X16745717Y-15175334D02*
X16736194Y-15156286D01*
X16736194Y-15156286D02*
X16726670Y-15146763D01*
X16726670Y-15146763D02*
X16707622Y-15137239D01*
X16707622Y-15137239D02*
X16669527Y-15137239D01*
X16669527Y-15137239D02*
X16650479Y-15146763D01*
X16650479Y-15146763D02*
X16640956Y-15156286D01*
X16640956Y-15156286D02*
X16631432Y-15175334D01*
X16631432Y-15175334D02*
X16631432Y-15222953D01*
X16631432Y-15222953D02*
X16640956Y-15242001D01*
X16640956Y-15242001D02*
X16650479Y-15251524D01*
X16650479Y-15251524D02*
X16669527Y-15261048D01*
X16669527Y-15261048D02*
X16707622Y-15261048D01*
X16707622Y-15261048D02*
X16726670Y-15251524D01*
X16726670Y-15251524D02*
X16736194Y-15242001D01*
X16736194Y-15242001D02*
X16745717Y-15222953D01*
X16936194Y-15337239D02*
X16821908Y-15337239D01*
X16879051Y-15337239D02*
X16879051Y-15137239D01*
X16879051Y-15137239D02*
X16860003Y-15165810D01*
X16860003Y-15165810D02*
X16840956Y-15184858D01*
X16840956Y-15184858D02*
X16821908Y-15194382D01*
X17012384Y-15137239D02*
X17012384Y-15175334D01*
X17088575Y-15137239D02*
X17088575Y-15175334D01*
X17383813Y-15413429D02*
X17374289Y-15403905D01*
X17374289Y-15403905D02*
X17355241Y-15375334D01*
X17355241Y-15375334D02*
X17345718Y-15356286D01*
X17345718Y-15356286D02*
X17336194Y-15327715D01*
X17336194Y-15327715D02*
X17326670Y-15280096D01*
X17326670Y-15280096D02*
X17326670Y-15242001D01*
X17326670Y-15242001D02*
X17336194Y-15194382D01*
X17336194Y-15194382D02*
X17345718Y-15165810D01*
X17345718Y-15165810D02*
X17355241Y-15146763D01*
X17355241Y-15146763D02*
X17374289Y-15118191D01*
X17374289Y-15118191D02*
X17383813Y-15108667D01*
X17564765Y-15337239D02*
X17450480Y-15337239D01*
X17507622Y-15337239D02*
X17507622Y-15137239D01*
X17507622Y-15137239D02*
X17488575Y-15165810D01*
X17488575Y-15165810D02*
X17469527Y-15184858D01*
X17469527Y-15184858D02*
X17450480Y-15194382D01*
X17736194Y-15137239D02*
X17698099Y-15137239D01*
X17698099Y-15137239D02*
X17679051Y-15146763D01*
X17679051Y-15146763D02*
X17669527Y-15156286D01*
X17669527Y-15156286D02*
X17650480Y-15184858D01*
X17650480Y-15184858D02*
X17640956Y-15222953D01*
X17640956Y-15222953D02*
X17640956Y-15299143D01*
X17640956Y-15299143D02*
X17650480Y-15318191D01*
X17650480Y-15318191D02*
X17660003Y-15327715D01*
X17660003Y-15327715D02*
X17679051Y-15337239D01*
X17679051Y-15337239D02*
X17717146Y-15337239D01*
X17717146Y-15337239D02*
X17736194Y-15327715D01*
X17736194Y-15327715D02*
X17745718Y-15318191D01*
X17745718Y-15318191D02*
X17755241Y-15299143D01*
X17755241Y-15299143D02*
X17755241Y-15251524D01*
X17755241Y-15251524D02*
X17745718Y-15232477D01*
X17745718Y-15232477D02*
X17736194Y-15222953D01*
X17736194Y-15222953D02*
X17717146Y-15213429D01*
X17717146Y-15213429D02*
X17679051Y-15213429D01*
X17679051Y-15213429D02*
X17660003Y-15222953D01*
X17660003Y-15222953D02*
X17650480Y-15232477D01*
X17650480Y-15232477D02*
X17640956Y-15251524D01*
X17993337Y-15337239D02*
X17993337Y-15137239D01*
X18079051Y-15337239D02*
X18079051Y-15232477D01*
X18079051Y-15232477D02*
X18069527Y-15213429D01*
X18069527Y-15213429D02*
X18050480Y-15203905D01*
X18050480Y-15203905D02*
X18021908Y-15203905D01*
X18021908Y-15203905D02*
X18002861Y-15213429D01*
X18002861Y-15213429D02*
X17993337Y-15222953D01*
X18202861Y-15337239D02*
X18183813Y-15327715D01*
X18183813Y-15327715D02*
X18174289Y-15318191D01*
X18174289Y-15318191D02*
X18164765Y-15299143D01*
X18164765Y-15299143D02*
X18164765Y-15242001D01*
X18164765Y-15242001D02*
X18174289Y-15222953D01*
X18174289Y-15222953D02*
X18183813Y-15213429D01*
X18183813Y-15213429D02*
X18202861Y-15203905D01*
X18202861Y-15203905D02*
X18231432Y-15203905D01*
X18231432Y-15203905D02*
X18250480Y-15213429D01*
X18250480Y-15213429D02*
X18260003Y-15222953D01*
X18260003Y-15222953D02*
X18269527Y-15242001D01*
X18269527Y-15242001D02*
X18269527Y-15299143D01*
X18269527Y-15299143D02*
X18260003Y-15318191D01*
X18260003Y-15318191D02*
X18250480Y-15327715D01*
X18250480Y-15327715D02*
X18231432Y-15337239D01*
X18231432Y-15337239D02*
X18202861Y-15337239D01*
X18383813Y-15337239D02*
X18364765Y-15327715D01*
X18364765Y-15327715D02*
X18355242Y-15308667D01*
X18355242Y-15308667D02*
X18355242Y-15137239D01*
X18536194Y-15327715D02*
X18517146Y-15337239D01*
X18517146Y-15337239D02*
X18479051Y-15337239D01*
X18479051Y-15337239D02*
X18460003Y-15327715D01*
X18460003Y-15327715D02*
X18450480Y-15308667D01*
X18450480Y-15308667D02*
X18450480Y-15232477D01*
X18450480Y-15232477D02*
X18460003Y-15213429D01*
X18460003Y-15213429D02*
X18479051Y-15203905D01*
X18479051Y-15203905D02*
X18517146Y-15203905D01*
X18517146Y-15203905D02*
X18536194Y-15213429D01*
X18536194Y-15213429D02*
X18545718Y-15232477D01*
X18545718Y-15232477D02*
X18545718Y-15251524D01*
X18545718Y-15251524D02*
X18450480Y-15270572D01*
X18621908Y-15327715D02*
X18640956Y-15337239D01*
X18640956Y-15337239D02*
X18679051Y-15337239D01*
X18679051Y-15337239D02*
X18698099Y-15327715D01*
X18698099Y-15327715D02*
X18707623Y-15308667D01*
X18707623Y-15308667D02*
X18707623Y-15299143D01*
X18707623Y-15299143D02*
X18698099Y-15280096D01*
X18698099Y-15280096D02*
X18679051Y-15270572D01*
X18679051Y-15270572D02*
X18650480Y-15270572D01*
X18650480Y-15270572D02*
X18631432Y-15261048D01*
X18631432Y-15261048D02*
X18621908Y-15242001D01*
X18621908Y-15242001D02*
X18621908Y-15232477D01*
X18621908Y-15232477D02*
X18631432Y-15213429D01*
X18631432Y-15213429D02*
X18650480Y-15203905D01*
X18650480Y-15203905D02*
X18679051Y-15203905D01*
X18679051Y-15203905D02*
X18698099Y-15213429D01*
X18774289Y-15413429D02*
X18783813Y-15403905D01*
X18783813Y-15403905D02*
X18802861Y-15375334D01*
X18802861Y-15375334D02*
X18812384Y-15356286D01*
X18812384Y-15356286D02*
X18821908Y-15327715D01*
X18821908Y-15327715D02*
X18831432Y-15280096D01*
X18831432Y-15280096D02*
X18831432Y-15242001D01*
X18831432Y-15242001D02*
X18821908Y-15194382D01*
X18821908Y-15194382D02*
X18812384Y-15165810D01*
X18812384Y-15165810D02*
X18802861Y-15146763D01*
X18802861Y-15146763D02*
X18783813Y-15118191D01*
X18783813Y-15118191D02*
X18774289Y-15108667D01*
X13708750Y-15615755D02*
X13808750Y-15515755D01*
X13708750Y-15415755D01*
X13608750Y-15515755D01*
X13708750Y-15615755D01*
X14050479Y-15407239D02*
X14174289Y-15407239D01*
X14174289Y-15407239D02*
X14107622Y-15483429D01*
X14107622Y-15483429D02*
X14136193Y-15483429D01*
X14136193Y-15483429D02*
X14155241Y-15492953D01*
X14155241Y-15492953D02*
X14164765Y-15502477D01*
X14164765Y-15502477D02*
X14174289Y-15521524D01*
X14174289Y-15521524D02*
X14174289Y-15569143D01*
X14174289Y-15569143D02*
X14164765Y-15588191D01*
X14164765Y-15588191D02*
X14155241Y-15597715D01*
X14155241Y-15597715D02*
X14136193Y-15607239D01*
X14136193Y-15607239D02*
X14079051Y-15607239D01*
X14079051Y-15607239D02*
X14060003Y-15597715D01*
X14060003Y-15597715D02*
X14050479Y-15588191D01*
X14260003Y-15588191D02*
X14269527Y-15597715D01*
X14269527Y-15597715D02*
X14260003Y-15607239D01*
X14260003Y-15607239D02*
X14250479Y-15597715D01*
X14250479Y-15597715D02*
X14260003Y-15588191D01*
X14260003Y-15588191D02*
X14260003Y-15607239D01*
X14345717Y-15426286D02*
X14355241Y-15416763D01*
X14355241Y-15416763D02*
X14374289Y-15407239D01*
X14374289Y-15407239D02*
X14421908Y-15407239D01*
X14421908Y-15407239D02*
X14440955Y-15416763D01*
X14440955Y-15416763D02*
X14450479Y-15426286D01*
X14450479Y-15426286D02*
X14460003Y-15445334D01*
X14460003Y-15445334D02*
X14460003Y-15464382D01*
X14460003Y-15464382D02*
X14450479Y-15492953D01*
X14450479Y-15492953D02*
X14336193Y-15607239D01*
X14336193Y-15607239D02*
X14460003Y-15607239D01*
X14583812Y-15407239D02*
X14602860Y-15407239D01*
X14602860Y-15407239D02*
X14621908Y-15416763D01*
X14621908Y-15416763D02*
X14631432Y-15426286D01*
X14631432Y-15426286D02*
X14640955Y-15445334D01*
X14640955Y-15445334D02*
X14650479Y-15483429D01*
X14650479Y-15483429D02*
X14650479Y-15531048D01*
X14650479Y-15531048D02*
X14640955Y-15569143D01*
X14640955Y-15569143D02*
X14631432Y-15588191D01*
X14631432Y-15588191D02*
X14621908Y-15597715D01*
X14621908Y-15597715D02*
X14602860Y-15607239D01*
X14602860Y-15607239D02*
X14583812Y-15607239D01*
X14583812Y-15607239D02*
X14564765Y-15597715D01*
X14564765Y-15597715D02*
X14555241Y-15588191D01*
X14555241Y-15588191D02*
X14545717Y-15569143D01*
X14545717Y-15569143D02*
X14536193Y-15531048D01*
X14536193Y-15531048D02*
X14536193Y-15483429D01*
X14536193Y-15483429D02*
X14545717Y-15445334D01*
X14545717Y-15445334D02*
X14555241Y-15426286D01*
X14555241Y-15426286D02*
X14564765Y-15416763D01*
X14564765Y-15416763D02*
X14583812Y-15407239D01*
X14774289Y-15407239D02*
X14793336Y-15407239D01*
X14793336Y-15407239D02*
X14812384Y-15416763D01*
X14812384Y-15416763D02*
X14821908Y-15426286D01*
X14821908Y-15426286D02*
X14831432Y-15445334D01*
X14831432Y-15445334D02*
X14840955Y-15483429D01*
X14840955Y-15483429D02*
X14840955Y-15531048D01*
X14840955Y-15531048D02*
X14831432Y-15569143D01*
X14831432Y-15569143D02*
X14821908Y-15588191D01*
X14821908Y-15588191D02*
X14812384Y-15597715D01*
X14812384Y-15597715D02*
X14793336Y-15607239D01*
X14793336Y-15607239D02*
X14774289Y-15607239D01*
X14774289Y-15607239D02*
X14755241Y-15597715D01*
X14755241Y-15597715D02*
X14745717Y-15588191D01*
X14745717Y-15588191D02*
X14736193Y-15569143D01*
X14736193Y-15569143D02*
X14726670Y-15531048D01*
X14726670Y-15531048D02*
X14726670Y-15483429D01*
X14726670Y-15483429D02*
X14736193Y-15445334D01*
X14736193Y-15445334D02*
X14745717Y-15426286D01*
X14745717Y-15426286D02*
X14755241Y-15416763D01*
X14755241Y-15416763D02*
X14774289Y-15407239D01*
X14926670Y-15607239D02*
X14926670Y-15473905D01*
X14926670Y-15492953D02*
X14936193Y-15483429D01*
X14936193Y-15483429D02*
X14955241Y-15473905D01*
X14955241Y-15473905D02*
X14983813Y-15473905D01*
X14983813Y-15473905D02*
X15002860Y-15483429D01*
X15002860Y-15483429D02*
X15012384Y-15502477D01*
X15012384Y-15502477D02*
X15012384Y-15607239D01*
X15012384Y-15502477D02*
X15021908Y-15483429D01*
X15021908Y-15483429D02*
X15040955Y-15473905D01*
X15040955Y-15473905D02*
X15069527Y-15473905D01*
X15069527Y-15473905D02*
X15088574Y-15483429D01*
X15088574Y-15483429D02*
X15098098Y-15502477D01*
X15098098Y-15502477D02*
X15098098Y-15607239D01*
X15193336Y-15607239D02*
X15193336Y-15473905D01*
X15193336Y-15492953D02*
X15202860Y-15483429D01*
X15202860Y-15483429D02*
X15221908Y-15473905D01*
X15221908Y-15473905D02*
X15250479Y-15473905D01*
X15250479Y-15473905D02*
X15269527Y-15483429D01*
X15269527Y-15483429D02*
X15279051Y-15502477D01*
X15279051Y-15502477D02*
X15279051Y-15607239D01*
X15279051Y-15502477D02*
X15288574Y-15483429D01*
X15288574Y-15483429D02*
X15307622Y-15473905D01*
X15307622Y-15473905D02*
X15336193Y-15473905D01*
X15336193Y-15473905D02*
X15355241Y-15483429D01*
X15355241Y-15483429D02*
X15364765Y-15502477D01*
X15364765Y-15502477D02*
X15364765Y-15607239D01*
X15755241Y-15397715D02*
X15583813Y-15654858D01*
X16012384Y-15407239D02*
X16031432Y-15407239D01*
X16031432Y-15407239D02*
X16050479Y-15416763D01*
X16050479Y-15416763D02*
X16060003Y-15426286D01*
X16060003Y-15426286D02*
X16069527Y-15445334D01*
X16069527Y-15445334D02*
X16079051Y-15483429D01*
X16079051Y-15483429D02*
X16079051Y-15531048D01*
X16079051Y-15531048D02*
X16069527Y-15569143D01*
X16069527Y-15569143D02*
X16060003Y-15588191D01*
X16060003Y-15588191D02*
X16050479Y-15597715D01*
X16050479Y-15597715D02*
X16031432Y-15607239D01*
X16031432Y-15607239D02*
X16012384Y-15607239D01*
X16012384Y-15607239D02*
X15993336Y-15597715D01*
X15993336Y-15597715D02*
X15983813Y-15588191D01*
X15983813Y-15588191D02*
X15974289Y-15569143D01*
X15974289Y-15569143D02*
X15964765Y-15531048D01*
X15964765Y-15531048D02*
X15964765Y-15483429D01*
X15964765Y-15483429D02*
X15974289Y-15445334D01*
X15974289Y-15445334D02*
X15983813Y-15426286D01*
X15983813Y-15426286D02*
X15993336Y-15416763D01*
X15993336Y-15416763D02*
X16012384Y-15407239D01*
X16164765Y-15588191D02*
X16174289Y-15597715D01*
X16174289Y-15597715D02*
X16164765Y-15607239D01*
X16164765Y-15607239D02*
X16155241Y-15597715D01*
X16155241Y-15597715D02*
X16164765Y-15588191D01*
X16164765Y-15588191D02*
X16164765Y-15607239D01*
X16364765Y-15607239D02*
X16250479Y-15607239D01*
X16307622Y-15607239D02*
X16307622Y-15407239D01*
X16307622Y-15407239D02*
X16288575Y-15435810D01*
X16288575Y-15435810D02*
X16269527Y-15454858D01*
X16269527Y-15454858D02*
X16250479Y-15464382D01*
X16440956Y-15426286D02*
X16450479Y-15416763D01*
X16450479Y-15416763D02*
X16469527Y-15407239D01*
X16469527Y-15407239D02*
X16517146Y-15407239D01*
X16517146Y-15407239D02*
X16536194Y-15416763D01*
X16536194Y-15416763D02*
X16545717Y-15426286D01*
X16545717Y-15426286D02*
X16555241Y-15445334D01*
X16555241Y-15445334D02*
X16555241Y-15464382D01*
X16555241Y-15464382D02*
X16545717Y-15492953D01*
X16545717Y-15492953D02*
X16431432Y-15607239D01*
X16431432Y-15607239D02*
X16555241Y-15607239D01*
X16726670Y-15407239D02*
X16688575Y-15407239D01*
X16688575Y-15407239D02*
X16669527Y-15416763D01*
X16669527Y-15416763D02*
X16660003Y-15426286D01*
X16660003Y-15426286D02*
X16640956Y-15454858D01*
X16640956Y-15454858D02*
X16631432Y-15492953D01*
X16631432Y-15492953D02*
X16631432Y-15569143D01*
X16631432Y-15569143D02*
X16640956Y-15588191D01*
X16640956Y-15588191D02*
X16650479Y-15597715D01*
X16650479Y-15597715D02*
X16669527Y-15607239D01*
X16669527Y-15607239D02*
X16707622Y-15607239D01*
X16707622Y-15607239D02*
X16726670Y-15597715D01*
X16726670Y-15597715D02*
X16736194Y-15588191D01*
X16736194Y-15588191D02*
X16745717Y-15569143D01*
X16745717Y-15569143D02*
X16745717Y-15521524D01*
X16745717Y-15521524D02*
X16736194Y-15502477D01*
X16736194Y-15502477D02*
X16726670Y-15492953D01*
X16726670Y-15492953D02*
X16707622Y-15483429D01*
X16707622Y-15483429D02*
X16669527Y-15483429D01*
X16669527Y-15483429D02*
X16650479Y-15492953D01*
X16650479Y-15492953D02*
X16640956Y-15502477D01*
X16640956Y-15502477D02*
X16631432Y-15521524D01*
X16869527Y-15407239D02*
X16888575Y-15407239D01*
X16888575Y-15407239D02*
X16907622Y-15416763D01*
X16907622Y-15416763D02*
X16917146Y-15426286D01*
X16917146Y-15426286D02*
X16926670Y-15445334D01*
X16926670Y-15445334D02*
X16936194Y-15483429D01*
X16936194Y-15483429D02*
X16936194Y-15531048D01*
X16936194Y-15531048D02*
X16926670Y-15569143D01*
X16926670Y-15569143D02*
X16917146Y-15588191D01*
X16917146Y-15588191D02*
X16907622Y-15597715D01*
X16907622Y-15597715D02*
X16888575Y-15607239D01*
X16888575Y-15607239D02*
X16869527Y-15607239D01*
X16869527Y-15607239D02*
X16850479Y-15597715D01*
X16850479Y-15597715D02*
X16840956Y-15588191D01*
X16840956Y-15588191D02*
X16831432Y-15569143D01*
X16831432Y-15569143D02*
X16821908Y-15531048D01*
X16821908Y-15531048D02*
X16821908Y-15483429D01*
X16821908Y-15483429D02*
X16831432Y-15445334D01*
X16831432Y-15445334D02*
X16840956Y-15426286D01*
X16840956Y-15426286D02*
X16850479Y-15416763D01*
X16850479Y-15416763D02*
X16869527Y-15407239D01*
X17012384Y-15407239D02*
X17012384Y-15445334D01*
X17088575Y-15407239D02*
X17088575Y-15445334D01*
X17383813Y-15683429D02*
X17374289Y-15673905D01*
X17374289Y-15673905D02*
X17355241Y-15645334D01*
X17355241Y-15645334D02*
X17345718Y-15626286D01*
X17345718Y-15626286D02*
X17336194Y-15597715D01*
X17336194Y-15597715D02*
X17326670Y-15550096D01*
X17326670Y-15550096D02*
X17326670Y-15512001D01*
X17326670Y-15512001D02*
X17336194Y-15464382D01*
X17336194Y-15464382D02*
X17345718Y-15435810D01*
X17345718Y-15435810D02*
X17355241Y-15416763D01*
X17355241Y-15416763D02*
X17374289Y-15388191D01*
X17374289Y-15388191D02*
X17383813Y-15378667D01*
X17545718Y-15473905D02*
X17545718Y-15607239D01*
X17498099Y-15397715D02*
X17450480Y-15540572D01*
X17450480Y-15540572D02*
X17574289Y-15540572D01*
X17802861Y-15607239D02*
X17802861Y-15407239D01*
X17888575Y-15607239D02*
X17888575Y-15502477D01*
X17888575Y-15502477D02*
X17879051Y-15483429D01*
X17879051Y-15483429D02*
X17860003Y-15473905D01*
X17860003Y-15473905D02*
X17831432Y-15473905D01*
X17831432Y-15473905D02*
X17812384Y-15483429D01*
X17812384Y-15483429D02*
X17802861Y-15492953D01*
X18012384Y-15607239D02*
X17993337Y-15597715D01*
X17993337Y-15597715D02*
X17983813Y-15588191D01*
X17983813Y-15588191D02*
X17974289Y-15569143D01*
X17974289Y-15569143D02*
X17974289Y-15512001D01*
X17974289Y-15512001D02*
X17983813Y-15492953D01*
X17983813Y-15492953D02*
X17993337Y-15483429D01*
X17993337Y-15483429D02*
X18012384Y-15473905D01*
X18012384Y-15473905D02*
X18040956Y-15473905D01*
X18040956Y-15473905D02*
X18060003Y-15483429D01*
X18060003Y-15483429D02*
X18069527Y-15492953D01*
X18069527Y-15492953D02*
X18079051Y-15512001D01*
X18079051Y-15512001D02*
X18079051Y-15569143D01*
X18079051Y-15569143D02*
X18069527Y-15588191D01*
X18069527Y-15588191D02*
X18060003Y-15597715D01*
X18060003Y-15597715D02*
X18040956Y-15607239D01*
X18040956Y-15607239D02*
X18012384Y-15607239D01*
X18193337Y-15607239D02*
X18174289Y-15597715D01*
X18174289Y-15597715D02*
X18164765Y-15578667D01*
X18164765Y-15578667D02*
X18164765Y-15407239D01*
X18345718Y-15597715D02*
X18326670Y-15607239D01*
X18326670Y-15607239D02*
X18288575Y-15607239D01*
X18288575Y-15607239D02*
X18269527Y-15597715D01*
X18269527Y-15597715D02*
X18260003Y-15578667D01*
X18260003Y-15578667D02*
X18260003Y-15502477D01*
X18260003Y-15502477D02*
X18269527Y-15483429D01*
X18269527Y-15483429D02*
X18288575Y-15473905D01*
X18288575Y-15473905D02*
X18326670Y-15473905D01*
X18326670Y-15473905D02*
X18345718Y-15483429D01*
X18345718Y-15483429D02*
X18355242Y-15502477D01*
X18355242Y-15502477D02*
X18355242Y-15521524D01*
X18355242Y-15521524D02*
X18260003Y-15540572D01*
X18431432Y-15597715D02*
X18450480Y-15607239D01*
X18450480Y-15607239D02*
X18488575Y-15607239D01*
X18488575Y-15607239D02*
X18507623Y-15597715D01*
X18507623Y-15597715D02*
X18517146Y-15578667D01*
X18517146Y-15578667D02*
X18517146Y-15569143D01*
X18517146Y-15569143D02*
X18507623Y-15550096D01*
X18507623Y-15550096D02*
X18488575Y-15540572D01*
X18488575Y-15540572D02*
X18460003Y-15540572D01*
X18460003Y-15540572D02*
X18440956Y-15531048D01*
X18440956Y-15531048D02*
X18431432Y-15512001D01*
X18431432Y-15512001D02*
X18431432Y-15502477D01*
X18431432Y-15502477D02*
X18440956Y-15483429D01*
X18440956Y-15483429D02*
X18460003Y-15473905D01*
X18460003Y-15473905D02*
X18488575Y-15473905D01*
X18488575Y-15473905D02*
X18507623Y-15483429D01*
X18583813Y-15683429D02*
X18593337Y-15673905D01*
X18593337Y-15673905D02*
X18612384Y-15645334D01*
X18612384Y-15645334D02*
X18621908Y-15626286D01*
X18621908Y-15626286D02*
X18631432Y-15597715D01*
X18631432Y-15597715D02*
X18640956Y-15550096D01*
X18640956Y-15550096D02*
X18640956Y-15512001D01*
X18640956Y-15512001D02*
X18631432Y-15464382D01*
X18631432Y-15464382D02*
X18621908Y-15435810D01*
X18621908Y-15435810D02*
X18612384Y-15416763D01*
X18612384Y-15416763D02*
X18593337Y-15388191D01*
X18593337Y-15388191D02*
X18583813Y-15378667D01*
X13608750Y-15735755D02*
X13808750Y-15935755D01*
X13808750Y-15735755D02*
X13608750Y-15935755D01*
X13808750Y-15835755D02*
G75*
G02*
X13608750Y-15835755I-100000J0D01*
G01*
X13608750Y-15835755D02*
G75*
G02*
X13808750Y-15835755I100000J0D01*
G01*
X14155241Y-15727239D02*
X14117146Y-15727239D01*
X14117146Y-15727239D02*
X14098098Y-15736763D01*
X14098098Y-15736763D02*
X14088574Y-15746286D01*
X14088574Y-15746286D02*
X14069527Y-15774858D01*
X14069527Y-15774858D02*
X14060003Y-15812953D01*
X14060003Y-15812953D02*
X14060003Y-15889143D01*
X14060003Y-15889143D02*
X14069527Y-15908191D01*
X14069527Y-15908191D02*
X14079051Y-15917715D01*
X14079051Y-15917715D02*
X14098098Y-15927239D01*
X14098098Y-15927239D02*
X14136193Y-15927239D01*
X14136193Y-15927239D02*
X14155241Y-15917715D01*
X14155241Y-15917715D02*
X14164765Y-15908191D01*
X14164765Y-15908191D02*
X14174289Y-15889143D01*
X14174289Y-15889143D02*
X14174289Y-15841524D01*
X14174289Y-15841524D02*
X14164765Y-15822477D01*
X14164765Y-15822477D02*
X14155241Y-15812953D01*
X14155241Y-15812953D02*
X14136193Y-15803429D01*
X14136193Y-15803429D02*
X14098098Y-15803429D01*
X14098098Y-15803429D02*
X14079051Y-15812953D01*
X14079051Y-15812953D02*
X14069527Y-15822477D01*
X14069527Y-15822477D02*
X14060003Y-15841524D01*
X14260003Y-15908191D02*
X14269527Y-15917715D01*
X14269527Y-15917715D02*
X14260003Y-15927239D01*
X14260003Y-15927239D02*
X14250479Y-15917715D01*
X14250479Y-15917715D02*
X14260003Y-15908191D01*
X14260003Y-15908191D02*
X14260003Y-15927239D01*
X14393336Y-15727239D02*
X14412384Y-15727239D01*
X14412384Y-15727239D02*
X14431432Y-15736763D01*
X14431432Y-15736763D02*
X14440955Y-15746286D01*
X14440955Y-15746286D02*
X14450479Y-15765334D01*
X14450479Y-15765334D02*
X14460003Y-15803429D01*
X14460003Y-15803429D02*
X14460003Y-15851048D01*
X14460003Y-15851048D02*
X14450479Y-15889143D01*
X14450479Y-15889143D02*
X14440955Y-15908191D01*
X14440955Y-15908191D02*
X14431432Y-15917715D01*
X14431432Y-15917715D02*
X14412384Y-15927239D01*
X14412384Y-15927239D02*
X14393336Y-15927239D01*
X14393336Y-15927239D02*
X14374289Y-15917715D01*
X14374289Y-15917715D02*
X14364765Y-15908191D01*
X14364765Y-15908191D02*
X14355241Y-15889143D01*
X14355241Y-15889143D02*
X14345717Y-15851048D01*
X14345717Y-15851048D02*
X14345717Y-15803429D01*
X14345717Y-15803429D02*
X14355241Y-15765334D01*
X14355241Y-15765334D02*
X14364765Y-15746286D01*
X14364765Y-15746286D02*
X14374289Y-15736763D01*
X14374289Y-15736763D02*
X14393336Y-15727239D01*
X14583812Y-15727239D02*
X14602860Y-15727239D01*
X14602860Y-15727239D02*
X14621908Y-15736763D01*
X14621908Y-15736763D02*
X14631432Y-15746286D01*
X14631432Y-15746286D02*
X14640955Y-15765334D01*
X14640955Y-15765334D02*
X14650479Y-15803429D01*
X14650479Y-15803429D02*
X14650479Y-15851048D01*
X14650479Y-15851048D02*
X14640955Y-15889143D01*
X14640955Y-15889143D02*
X14631432Y-15908191D01*
X14631432Y-15908191D02*
X14621908Y-15917715D01*
X14621908Y-15917715D02*
X14602860Y-15927239D01*
X14602860Y-15927239D02*
X14583812Y-15927239D01*
X14583812Y-15927239D02*
X14564765Y-15917715D01*
X14564765Y-15917715D02*
X14555241Y-15908191D01*
X14555241Y-15908191D02*
X14545717Y-15889143D01*
X14545717Y-15889143D02*
X14536193Y-15851048D01*
X14536193Y-15851048D02*
X14536193Y-15803429D01*
X14536193Y-15803429D02*
X14545717Y-15765334D01*
X14545717Y-15765334D02*
X14555241Y-15746286D01*
X14555241Y-15746286D02*
X14564765Y-15736763D01*
X14564765Y-15736763D02*
X14583812Y-15727239D01*
X14774289Y-15727239D02*
X14793336Y-15727239D01*
X14793336Y-15727239D02*
X14812384Y-15736763D01*
X14812384Y-15736763D02*
X14821908Y-15746286D01*
X14821908Y-15746286D02*
X14831432Y-15765334D01*
X14831432Y-15765334D02*
X14840955Y-15803429D01*
X14840955Y-15803429D02*
X14840955Y-15851048D01*
X14840955Y-15851048D02*
X14831432Y-15889143D01*
X14831432Y-15889143D02*
X14821908Y-15908191D01*
X14821908Y-15908191D02*
X14812384Y-15917715D01*
X14812384Y-15917715D02*
X14793336Y-15927239D01*
X14793336Y-15927239D02*
X14774289Y-15927239D01*
X14774289Y-15927239D02*
X14755241Y-15917715D01*
X14755241Y-15917715D02*
X14745717Y-15908191D01*
X14745717Y-15908191D02*
X14736193Y-15889143D01*
X14736193Y-15889143D02*
X14726670Y-15851048D01*
X14726670Y-15851048D02*
X14726670Y-15803429D01*
X14726670Y-15803429D02*
X14736193Y-15765334D01*
X14736193Y-15765334D02*
X14745717Y-15746286D01*
X14745717Y-15746286D02*
X14755241Y-15736763D01*
X14755241Y-15736763D02*
X14774289Y-15727239D01*
X14926670Y-15927239D02*
X14926670Y-15793905D01*
X14926670Y-15812953D02*
X14936193Y-15803429D01*
X14936193Y-15803429D02*
X14955241Y-15793905D01*
X14955241Y-15793905D02*
X14983813Y-15793905D01*
X14983813Y-15793905D02*
X15002860Y-15803429D01*
X15002860Y-15803429D02*
X15012384Y-15822477D01*
X15012384Y-15822477D02*
X15012384Y-15927239D01*
X15012384Y-15822477D02*
X15021908Y-15803429D01*
X15021908Y-15803429D02*
X15040955Y-15793905D01*
X15040955Y-15793905D02*
X15069527Y-15793905D01*
X15069527Y-15793905D02*
X15088574Y-15803429D01*
X15088574Y-15803429D02*
X15098098Y-15822477D01*
X15098098Y-15822477D02*
X15098098Y-15927239D01*
X15193336Y-15927239D02*
X15193336Y-15793905D01*
X15193336Y-15812953D02*
X15202860Y-15803429D01*
X15202860Y-15803429D02*
X15221908Y-15793905D01*
X15221908Y-15793905D02*
X15250479Y-15793905D01*
X15250479Y-15793905D02*
X15269527Y-15803429D01*
X15269527Y-15803429D02*
X15279051Y-15822477D01*
X15279051Y-15822477D02*
X15279051Y-15927239D01*
X15279051Y-15822477D02*
X15288574Y-15803429D01*
X15288574Y-15803429D02*
X15307622Y-15793905D01*
X15307622Y-15793905D02*
X15336193Y-15793905D01*
X15336193Y-15793905D02*
X15355241Y-15803429D01*
X15355241Y-15803429D02*
X15364765Y-15822477D01*
X15364765Y-15822477D02*
X15364765Y-15927239D01*
X15755241Y-15717715D02*
X15583813Y-15974858D01*
X16012384Y-15727239D02*
X16031432Y-15727239D01*
X16031432Y-15727239D02*
X16050479Y-15736763D01*
X16050479Y-15736763D02*
X16060003Y-15746286D01*
X16060003Y-15746286D02*
X16069527Y-15765334D01*
X16069527Y-15765334D02*
X16079051Y-15803429D01*
X16079051Y-15803429D02*
X16079051Y-15851048D01*
X16079051Y-15851048D02*
X16069527Y-15889143D01*
X16069527Y-15889143D02*
X16060003Y-15908191D01*
X16060003Y-15908191D02*
X16050479Y-15917715D01*
X16050479Y-15917715D02*
X16031432Y-15927239D01*
X16031432Y-15927239D02*
X16012384Y-15927239D01*
X16012384Y-15927239D02*
X15993336Y-15917715D01*
X15993336Y-15917715D02*
X15983813Y-15908191D01*
X15983813Y-15908191D02*
X15974289Y-15889143D01*
X15974289Y-15889143D02*
X15964765Y-15851048D01*
X15964765Y-15851048D02*
X15964765Y-15803429D01*
X15964765Y-15803429D02*
X15974289Y-15765334D01*
X15974289Y-15765334D02*
X15983813Y-15746286D01*
X15983813Y-15746286D02*
X15993336Y-15736763D01*
X15993336Y-15736763D02*
X16012384Y-15727239D01*
X16164765Y-15908191D02*
X16174289Y-15917715D01*
X16174289Y-15917715D02*
X16164765Y-15927239D01*
X16164765Y-15927239D02*
X16155241Y-15917715D01*
X16155241Y-15917715D02*
X16164765Y-15908191D01*
X16164765Y-15908191D02*
X16164765Y-15927239D01*
X16250479Y-15746286D02*
X16260003Y-15736763D01*
X16260003Y-15736763D02*
X16279051Y-15727239D01*
X16279051Y-15727239D02*
X16326670Y-15727239D01*
X16326670Y-15727239D02*
X16345717Y-15736763D01*
X16345717Y-15736763D02*
X16355241Y-15746286D01*
X16355241Y-15746286D02*
X16364765Y-15765334D01*
X16364765Y-15765334D02*
X16364765Y-15784382D01*
X16364765Y-15784382D02*
X16355241Y-15812953D01*
X16355241Y-15812953D02*
X16240956Y-15927239D01*
X16240956Y-15927239D02*
X16364765Y-15927239D01*
X16431432Y-15727239D02*
X16555241Y-15727239D01*
X16555241Y-15727239D02*
X16488575Y-15803429D01*
X16488575Y-15803429D02*
X16517146Y-15803429D01*
X16517146Y-15803429D02*
X16536194Y-15812953D01*
X16536194Y-15812953D02*
X16545717Y-15822477D01*
X16545717Y-15822477D02*
X16555241Y-15841524D01*
X16555241Y-15841524D02*
X16555241Y-15889143D01*
X16555241Y-15889143D02*
X16545717Y-15908191D01*
X16545717Y-15908191D02*
X16536194Y-15917715D01*
X16536194Y-15917715D02*
X16517146Y-15927239D01*
X16517146Y-15927239D02*
X16460003Y-15927239D01*
X16460003Y-15927239D02*
X16440956Y-15917715D01*
X16440956Y-15917715D02*
X16431432Y-15908191D01*
X16726670Y-15727239D02*
X16688575Y-15727239D01*
X16688575Y-15727239D02*
X16669527Y-15736763D01*
X16669527Y-15736763D02*
X16660003Y-15746286D01*
X16660003Y-15746286D02*
X16640956Y-15774858D01*
X16640956Y-15774858D02*
X16631432Y-15812953D01*
X16631432Y-15812953D02*
X16631432Y-15889143D01*
X16631432Y-15889143D02*
X16640956Y-15908191D01*
X16640956Y-15908191D02*
X16650479Y-15917715D01*
X16650479Y-15917715D02*
X16669527Y-15927239D01*
X16669527Y-15927239D02*
X16707622Y-15927239D01*
X16707622Y-15927239D02*
X16726670Y-15917715D01*
X16726670Y-15917715D02*
X16736194Y-15908191D01*
X16736194Y-15908191D02*
X16745717Y-15889143D01*
X16745717Y-15889143D02*
X16745717Y-15841524D01*
X16745717Y-15841524D02*
X16736194Y-15822477D01*
X16736194Y-15822477D02*
X16726670Y-15812953D01*
X16726670Y-15812953D02*
X16707622Y-15803429D01*
X16707622Y-15803429D02*
X16669527Y-15803429D01*
X16669527Y-15803429D02*
X16650479Y-15812953D01*
X16650479Y-15812953D02*
X16640956Y-15822477D01*
X16640956Y-15822477D02*
X16631432Y-15841524D01*
X16821908Y-15746286D02*
X16831432Y-15736763D01*
X16831432Y-15736763D02*
X16850479Y-15727239D01*
X16850479Y-15727239D02*
X16898099Y-15727239D01*
X16898099Y-15727239D02*
X16917146Y-15736763D01*
X16917146Y-15736763D02*
X16926670Y-15746286D01*
X16926670Y-15746286D02*
X16936194Y-15765334D01*
X16936194Y-15765334D02*
X16936194Y-15784382D01*
X16936194Y-15784382D02*
X16926670Y-15812953D01*
X16926670Y-15812953D02*
X16812384Y-15927239D01*
X16812384Y-15927239D02*
X16936194Y-15927239D01*
X17012384Y-15727239D02*
X17012384Y-15765334D01*
X17088575Y-15727239D02*
X17088575Y-15765334D01*
X17383813Y-16003429D02*
X17374289Y-15993905D01*
X17374289Y-15993905D02*
X17355241Y-15965334D01*
X17355241Y-15965334D02*
X17345718Y-15946286D01*
X17345718Y-15946286D02*
X17336194Y-15917715D01*
X17336194Y-15917715D02*
X17326670Y-15870096D01*
X17326670Y-15870096D02*
X17326670Y-15832001D01*
X17326670Y-15832001D02*
X17336194Y-15784382D01*
X17336194Y-15784382D02*
X17345718Y-15755810D01*
X17345718Y-15755810D02*
X17355241Y-15736763D01*
X17355241Y-15736763D02*
X17374289Y-15708191D01*
X17374289Y-15708191D02*
X17383813Y-15698667D01*
X17564765Y-15927239D02*
X17450480Y-15927239D01*
X17507622Y-15927239D02*
X17507622Y-15727239D01*
X17507622Y-15727239D02*
X17488575Y-15755810D01*
X17488575Y-15755810D02*
X17469527Y-15774858D01*
X17469527Y-15774858D02*
X17450480Y-15784382D01*
X17802861Y-15927239D02*
X17802861Y-15727239D01*
X17888575Y-15927239D02*
X17888575Y-15822477D01*
X17888575Y-15822477D02*
X17879051Y-15803429D01*
X17879051Y-15803429D02*
X17860003Y-15793905D01*
X17860003Y-15793905D02*
X17831432Y-15793905D01*
X17831432Y-15793905D02*
X17812384Y-15803429D01*
X17812384Y-15803429D02*
X17802861Y-15812953D01*
X18012384Y-15927239D02*
X17993337Y-15917715D01*
X17993337Y-15917715D02*
X17983813Y-15908191D01*
X17983813Y-15908191D02*
X17974289Y-15889143D01*
X17974289Y-15889143D02*
X17974289Y-15832001D01*
X17974289Y-15832001D02*
X17983813Y-15812953D01*
X17983813Y-15812953D02*
X17993337Y-15803429D01*
X17993337Y-15803429D02*
X18012384Y-15793905D01*
X18012384Y-15793905D02*
X18040956Y-15793905D01*
X18040956Y-15793905D02*
X18060003Y-15803429D01*
X18060003Y-15803429D02*
X18069527Y-15812953D01*
X18069527Y-15812953D02*
X18079051Y-15832001D01*
X18079051Y-15832001D02*
X18079051Y-15889143D01*
X18079051Y-15889143D02*
X18069527Y-15908191D01*
X18069527Y-15908191D02*
X18060003Y-15917715D01*
X18060003Y-15917715D02*
X18040956Y-15927239D01*
X18040956Y-15927239D02*
X18012384Y-15927239D01*
X18193337Y-15927239D02*
X18174289Y-15917715D01*
X18174289Y-15917715D02*
X18164765Y-15898667D01*
X18164765Y-15898667D02*
X18164765Y-15727239D01*
X18345718Y-15917715D02*
X18326670Y-15927239D01*
X18326670Y-15927239D02*
X18288575Y-15927239D01*
X18288575Y-15927239D02*
X18269527Y-15917715D01*
X18269527Y-15917715D02*
X18260003Y-15898667D01*
X18260003Y-15898667D02*
X18260003Y-15822477D01*
X18260003Y-15822477D02*
X18269527Y-15803429D01*
X18269527Y-15803429D02*
X18288575Y-15793905D01*
X18288575Y-15793905D02*
X18326670Y-15793905D01*
X18326670Y-15793905D02*
X18345718Y-15803429D01*
X18345718Y-15803429D02*
X18355242Y-15822477D01*
X18355242Y-15822477D02*
X18355242Y-15841524D01*
X18355242Y-15841524D02*
X18260003Y-15860572D01*
X18421908Y-16003429D02*
X18431432Y-15993905D01*
X18431432Y-15993905D02*
X18450480Y-15965334D01*
X18450480Y-15965334D02*
X18460003Y-15946286D01*
X18460003Y-15946286D02*
X18469527Y-15917715D01*
X18469527Y-15917715D02*
X18479051Y-15870096D01*
X18479051Y-15870096D02*
X18479051Y-15832001D01*
X18479051Y-15832001D02*
X18469527Y-15784382D01*
X18469527Y-15784382D02*
X18460003Y-15755810D01*
X18460003Y-15755810D02*
X18450480Y-15736763D01*
X18450480Y-15736763D02*
X18431432Y-15708191D01*
X18431432Y-15708191D02*
X18421908Y-15698667D01*
M02*
