M48
; DRILL file {KiCad 9.0.1} date 2025-06-23T17:34:09-0400
; FORMAT={-:-/ absolute / metric / decimal}
; #@! TF.CreationDate,2025-06-23T17:34:09-04:00
; #@! TF.GenerationSoftware,Kicad,Pcbnew,9.0.1
; #@! TF.FileFunction,NonPlated,1,2,NPTH
FMAT,2
METRIC
; #@! TA.AperFunction,NonPlated,NPTH,ComponentDrill
T1C1.700
; #@! TA.AperFunction,NonPlated,NPTH,ComponentDrill
T2C4.000
%
G90
G05
T1
X144.939Y-83.344
X144.939Y-102.394
X154.464Y-121.444
X155.099Y-83.344
X155.099Y-102.394
X163.989Y-83.344
X163.989Y-102.394
X164.624Y-121.444
X174.149Y-83.344
X174.149Y-102.394
X183.039Y-83.344
X183.039Y-102.394
X183.039Y-121.444
X193.199Y-83.344
X193.199Y-102.394
X193.199Y-121.444
T2
X150.019Y-83.344
X150.019Y-102.394
X159.544Y-121.444
X169.069Y-83.344
X169.069Y-102.394
X188.119Y-83.344
X188.119Y-102.394
X188.119Y-121.444
M30
