G04 #@! TF.GenerationSoftware,KiCad,Pcbnew,9.0.1*
G04 #@! TF.CreationDate,2025-06-23T17:34:09-04:00*
G04 #@! TF.ProjectId,engiboard,656e6769-626f-4617-9264-2e6b69636164,rev?*
G04 #@! TF.SameCoordinates,Original*
G04 #@! TF.FileFunction,Soldermask,Bot*
G04 #@! TF.FilePolarity,Negative*
%FSLAX46Y46*%
G04 Gerber Fmt 4.6, Leading zero omitted, Abs format (unit mm)*
G04 Created by KiCad (PCBNEW 9.0.1) date 2025-06-23 17:34:09*
%MOMM*%
%LPD*%
G01*
G04 APERTURE LIST*
%ADD10C,1.524000*%
%ADD11C,5.700000*%
%ADD12C,1.700000*%
%ADD13C,4.000000*%
%ADD14C,2.200000*%
%ADD15R,1.700000X1.700000*%
G04 APERTURE END LIST*
D10*
G04 #@! TO.C,U1*
X141380000Y-65246250D03*
X143920000Y-65246250D03*
X146460000Y-65246250D03*
X149000000Y-65246250D03*
X151540000Y-65246250D03*
X154080000Y-65246250D03*
X156620000Y-65246250D03*
X156620000Y-50006250D03*
X154080000Y-50006250D03*
X151540000Y-50006250D03*
X149000000Y-50006250D03*
X146460000Y-50006250D03*
X143920000Y-50006250D03*
X141380000Y-50006250D03*
G04 #@! TD*
D11*
G04 #@! TO.C,REF\u002A\u002A*
X195262500Y-133350000D03*
G04 #@! TD*
D12*
G04 #@! TO.C,SW4*
X144938750Y-102393750D03*
D13*
X150018750Y-102393750D03*
D12*
X155098750Y-102393750D03*
D14*
X152558750Y-97313750D03*
X146208750Y-99853750D03*
G04 #@! TD*
D12*
G04 #@! TO.C,SW8*
X154463750Y-121443750D03*
D13*
X159543750Y-121443750D03*
D12*
X164623750Y-121443750D03*
D14*
X162083750Y-116363750D03*
X155733750Y-118903750D03*
G04 #@! TD*
D12*
G04 #@! TO.C,SW6*
X183038750Y-102393750D03*
D13*
X188118750Y-102393750D03*
D12*
X193198750Y-102393750D03*
D14*
X190658750Y-97313750D03*
X184308750Y-99853750D03*
G04 #@! TD*
D11*
G04 #@! TO.C,REF\u002A\u002A*
X142875000Y-133350000D03*
G04 #@! TD*
G04 #@! TO.C,REF\u002A\u002A*
X195262500Y-42862500D03*
G04 #@! TD*
D12*
G04 #@! TO.C,SW2*
X163988750Y-83343750D03*
D13*
X169068750Y-83343750D03*
D12*
X174148750Y-83343750D03*
D14*
X171608750Y-78263750D03*
X165258750Y-80803750D03*
G04 #@! TD*
D12*
G04 #@! TO.C,SW7*
X183038750Y-121443750D03*
D13*
X188118750Y-121443750D03*
D12*
X193198750Y-121443750D03*
D14*
X190658750Y-116363750D03*
X184308750Y-118903750D03*
G04 #@! TD*
D15*
G04 #@! TO.C,OLED1*
X163000000Y-59630000D03*
D12*
X163000000Y-62170000D03*
X163000000Y-64710000D03*
X163000000Y-67250000D03*
G04 #@! TD*
D11*
G04 #@! TO.C,REF\u002A\u002A*
X142875000Y-42862500D03*
G04 #@! TD*
D12*
G04 #@! TO.C,SW5*
X163988750Y-102393750D03*
D13*
X169068750Y-102393750D03*
D12*
X174148750Y-102393750D03*
D14*
X171608750Y-97313750D03*
X165258750Y-99853750D03*
G04 #@! TD*
D12*
G04 #@! TO.C,SW1*
X144938750Y-83343750D03*
D13*
X150018750Y-83343750D03*
D12*
X155098750Y-83343750D03*
D14*
X152558750Y-78263750D03*
X146208750Y-80803750D03*
G04 #@! TD*
D12*
G04 #@! TO.C,SW3*
X183038750Y-83343750D03*
D13*
X188118750Y-83343750D03*
D12*
X193198750Y-83343750D03*
D14*
X190658750Y-78263750D03*
X184308750Y-80803750D03*
G04 #@! TD*
M02*
